<?plantuml 1.2026.2?><svg xmlns="http://www.w3.org/2000/svg" xmlns:xlink="http://www.w3.org/1999/xlink" contentStyleType="text/css" data-diagram-type="ACTIVITY" height="1084px" preserveAspectRatio="none" style="width:679px;height:1084px;background:#FFFFFF;" version="1.1" viewBox="0 0 679 1084" width="679px" zoomAndPan="magnify"><title>S&#417; &#273;&#7891; ho&#7841;t &#273;&#7897;ng Ghi s&#7893; phi&#7871;u xu&#7845;t kho (R&#250;t g&#7885;n)</title><defs/><g><g class="title" data-source-line="1"><text fill="#000000" font-family="sans-serif" font-size="14" font-weight="bold" lengthAdjust="spacing" textLength="328.0293" x="174.2695" y="34.5332">S&#417; &#273;&#7891; ho&#7841;t &#273;&#7897;ng Ghi s&#7893; phi&#7871;u xu&#7845;t kho (R&#250;t g&#7885;n)</text></g><ellipse cx="214.6799" cy="58.6094" fill="#222222" rx="10" ry="10" style="stroke:#222222;stroke-width:1;"/><rect fill="#F1F1F1" height="35.0938" rx="12.5" ry="12.5" style="stroke:#181818;stroke-width:0.5;" width="188.7734" x="120.2932" y="88.6094"/><text fill="#000000" font-family="sans-serif" font-size="12" lengthAdjust="spacing" textLength="168.7734" x="130.2932" y="111.0664">L&#7853;p phi&#7871;u xu&#7845;t kho nh&#225;p (Draft)</text><rect fill="#F1F1F1" height="35.0938" rx="12.5" ry="12.5" style="stroke:#181818;stroke-width:0.5;" width="216.6523" x="106.3538" y="143.7031"/><text fill="#000000" font-family="sans-serif" font-size="12" lengthAdjust="spacing" textLength="196.6523" x="116.3538" y="166.1602">Ki&#7875;m tra th&#244;ng tin b&#7855;t bu&#7897;c v&#224; h&#7907;p l&#7879;</text><polygon fill="#F1F1F1" points="171.6279,198.7969,257.7319,198.7969,269.7319,210.7969,257.7319,222.7969,171.6279,222.7969,159.6279,210.7969,171.6279,198.7969" style="stroke:#181818;stroke-width:0.5;"/><text fill="#000000" font-family="sans-serif" font-size="11" lengthAdjust="spacing" textLength="86.104" x="171.6279" y="215.2979">Th&#244;ng tin h&#7907;p l&#7879;?</text><text fill="#000000" font-family="sans-serif" font-size="11" lengthAdjust="spacing" textLength="31.8076" x="127.8203" y="208.3799">Kh&#244;ng</text><text fill="#000000" font-family="sans-serif" font-size="11" lengthAdjust="spacing" textLength="14.0615" x="269.7319" y="208.3799">C&#243;</text><rect fill="#F1F1F1" height="35.0938" rx="12.5" ry="12.5" style="stroke:#181818;stroke-width:0.5;" width="108.7344" x="11" y="232.7969"/><text fill="#000000" font-family="sans-serif" font-size="12" lengthAdjust="spacing" textLength="88.7344" x="21" y="255.2539">B&#225;o l&#7895;i nh&#7853;p li&#7879;u</text><ellipse cx="65.3672" cy="298.8906" fill="none" rx="11" ry="11" style="stroke:#222222;stroke-width:1;"/><ellipse cx="65.3672" cy="298.8906" fill="#222222" rx="6" ry="6" style="stroke:#222222;stroke-width:1;"/><rect fill="#F1F1F1" height="35.0938" rx="12.5" ry="12.5" style="stroke:#181818;stroke-width:0.5;" width="132.7402" x="297.6226" y="232.7969"/><text fill="#000000" font-family="sans-serif" font-size="12" lengthAdjust="spacing" textLength="112.7402" x="307.6226" y="255.2539">Duy&#7879;t phi&#7871;u xu&#7845;t kho</text><rect fill="#F1F1F1" height="35.0938" rx="12.5" ry="12.5" style="stroke:#181818;stroke-width:0.5;" width="132.0605" x="297.9624" y="287.8906"/><text fill="#000000" font-family="sans-serif" font-size="12" lengthAdjust="spacing" textLength="112.0605" x="307.9624" y="310.3477">B&#7855;t &#273;&#7847;u ghi s&#7893; (Post)</text><rect fill="none" height="643.1836" style="stroke:#000000;stroke-width:1.5;" width="528.834" x="139.7344" y="332.9844"/><path d="M290.5957,332.9844 L290.5957,343.5938 L280.5957,353.5938 L139.7344,353.5938" fill="none" style="stroke:#000000;stroke-width:1.5;"/><text fill="#000000" font-family="sans-serif" font-size="14" lengthAdjust="spacing" textLength="140.8613" x="142.7344" y="348.5176">Ghi s&#7893; &amp; C&#7853;p nh&#7853;t kho</text><rect fill="#F1F1F1" height="35.0938" rx="12.5" ry="12.5" style="stroke:#181818;stroke-width:0.5;" width="250.9473" x="238.519" y="370.5938"/><text fill="#000000" font-family="sans-serif" font-size="12" lengthAdjust="spacing" textLength="230.9473" x="248.519" y="393.0508">Quy &#273;&#7893;i s&#7889; l&#432;&#7907;ng giao d&#7883;ch v&#7873; &#273;&#417;n v&#7883; c&#417; s&#7903;</text><rect fill="#F1F1F1" height="35.0938" rx="12.5" ry="12.5" style="stroke:#181818;stroke-width:0.5;" width="160.0859" x="283.9497" y="425.6875"/><text fill="#000000" font-family="sans-serif" font-size="12" lengthAdjust="spacing" textLength="140.0859" x="293.9497" y="448.1445">Ki&#7875;m tra t&#7891;n kho kh&#7843; d&#7909;ng</text><polygon fill="#F1F1F1" points="334.3335,480.7813,393.6519,480.7813,405.6519,492.7813,393.6519,504.7813,334.3335,504.7813,322.3335,492.7813,334.3335,480.7813" style="stroke:#181818;stroke-width:0.5;"/><text fill="#000000" font-family="sans-serif" font-size="11" lengthAdjust="spacing" textLength="59.3184" x="334.3335" y="497.2822">&#272;&#7911; t&#7891;n kho?</text><text fill="#000000" font-family="sans-serif" font-size="11" lengthAdjust="spacing" textLength="31.8076" x="290.5259" y="490.3643">Kh&#244;ng</text><text fill="#000000" font-family="sans-serif" font-size="11" lengthAdjust="spacing" textLength="14.0615" x="405.6519" y="490.3643">C&#243;</text><rect fill="#F1F1F1" height="35.0938" rx="12.5" ry="12.5" style="stroke:#181818;stroke-width:0.5;" width="152.0996" x="159.7344" y="514.7813"/><text fill="#000000" font-family="sans-serif" font-size="12" lengthAdjust="spacing" textLength="132.0996" x="169.7344" y="537.2383">B&#225;o l&#7895;i kh&#244;ng &#273;&#7911; t&#7891;n kho</text><ellipse cx="235.7842" cy="595.875" fill="none" rx="11" ry="11" style="stroke:#222222;stroke-width:1;"/><ellipse cx="235.7842" cy="595.875" fill="#222222" rx="6" ry="6" style="stroke:#222222;stroke-width:1;"/><rect fill="#F1F1F1" height="35.0938" rx="12.5" ry="12.5" style="stroke:#181818;stroke-width:0.5;" width="300.7344" x="341.834" y="563.6992"/><text fill="#000000" font-family="sans-serif" font-size="12" lengthAdjust="spacing" textLength="280.7344" x="351.834" y="586.1563">Ki&#7875;m tra v&#224; c&#7853;p nh&#7853;t tr&#7841;ng th&#225;i c&#225;c Serial sang 'Sold'</text><rect fill="#F1F1F1" height="35.0938" rx="12.5" ry="12.5" style="stroke:#181818;stroke-width:0.5;" width="255.4648" x="364.4688" y="675.793"/><text fill="#000000" font-family="sans-serif" font-size="12" lengthAdjust="spacing" textLength="235.4648" x="374.4688" y="698.25">T&#7841;o th&#244;ng tin b&#7843;o h&#224;nh (WarrantyCoverage)</text><polygon fill="#F1F1F1" points="457.6436,626.875,526.7588,626.875,538.7588,638.875,526.7588,650.875,457.6436,650.875,445.6436,638.875,457.6436,626.875" style="stroke:#181818;stroke-width:0.5;"/><text fill="#000000" font-family="sans-serif" font-size="11" lengthAdjust="spacing" textLength="14.0615" x="496.2012" y="662.2939">C&#243;</text><text fill="#000000" font-family="sans-serif" font-size="11" lengthAdjust="spacing" textLength="69.1152" x="457.6436" y="643.376">C&#243; b&#7843;o h&#224;nh?</text><polygon fill="#F1F1F1" points="492.2012,730.8867,504.2012,742.8867,492.2012,754.8867,480.2012,742.8867,492.2012,730.8867" style="stroke:#181818;stroke-width:0.5;"/><polygon fill="#F1F1F1" points="447.2585,514.7813,537.1438,514.7813,549.1438,526.7813,537.1438,538.7813,447.2585,538.7813,435.2585,526.7813,447.2585,514.7813" style="stroke:#181818;stroke-width:0.5;"/><text fill="#000000" font-family="sans-serif" font-size="11" lengthAdjust="spacing" textLength="14.0615" x="496.2012" y="550.2002">C&#243;</text><text fill="#000000" font-family="sans-serif" font-size="11" lengthAdjust="spacing" textLength="89.8853" x="447.2585" y="531.2822">C&#243; qu&#7843;n l&#253; Serial?</text><polygon fill="#F1F1F1" points="492.2012,774.8867,504.2012,786.8867,492.2012,798.8867,480.2012,786.8867,492.2012,774.8867" style="stroke:#181818;stroke-width:0.5;"/><rect fill="#F1F1F1" height="35.0938" rx="12.5" ry="12.5" style="stroke:#181818;stroke-width:0.5;" width="218.0176" x="383.1924" y="818.8867"/><text fill="#000000" font-family="sans-serif" font-size="12" lengthAdjust="spacing" textLength="198.0176" x="393.1924" y="841.3438">Tr&#7915; s&#7889; l&#432;&#7907;ng t&#7891;n kho (StockBalance)</text><rect fill="#F1F1F1" height="35.0938" rx="12.5" ry="12.5" style="stroke:#181818;stroke-width:0.5;" width="255.4824" x="364.46" y="873.9805"/><text fill="#000000" font-family="sans-serif" font-size="12" lengthAdjust="spacing" textLength="235.4824" x="374.46" y="896.4375">Ghi nh&#7853;n th&#7867; kho (StockLedger) &amp; Audit Log</text><rect fill="#F1F1F1" height="35.0938" rx="12.5" ry="12.5" style="stroke:#181818;stroke-width:0.5;" width="284.0762" x="350.1631" y="929.0742"/><text fill="#000000" font-family="sans-serif" font-size="12" lengthAdjust="spacing" textLength="264.0762" x="360.1631" y="951.5313">Chuy&#7875;n tr&#7841;ng th&#225;i phi&#7871;u sang '&#272;&#227; ghi s&#7893;' (Posted)</text><rect fill="#F1F1F1" height="35.0938" rx="12.5" ry="12.5" style="stroke:#181818;stroke-width:0.5;" width="188.7969" x="269.5942" y="996.168"/><text fill="#000000" font-family="sans-serif" font-size="12" lengthAdjust="spacing" textLength="168.7969" x="279.5942" y="1018.625">Th&#244;ng b&#225;o xu&#7845;t kho th&#224;nh c&#244;ng</text><ellipse cx="363.9927" cy="1062.2617" fill="none" rx="11" ry="11" style="stroke:#222222;stroke-width:1;"/><ellipse cx="363.9927" cy="1062.2617" fill="#222222" rx="6" ry="6" style="stroke:#222222;stroke-width:1;"/><line style="stroke:#181818;stroke-width:1;" x1="214.6799" x2="214.6799" y1="68.6094" y2="88.6094"/><polygon fill="#181818" points="210.6799,78.6094,214.6799,88.6094,218.6799,78.6094,214.6799,82.6094" style="stroke:#181818;stroke-width:1;"/><line style="stroke:#181818;stroke-width:1;" x1="214.6799" x2="214.6799" y1="123.7031" y2="143.7031"/><polygon fill="#181818" points="210.6799,133.7031,214.6799,143.7031,218.6799,133.7031,214.6799,137.7031" style="stroke:#181818;stroke-width:1;"/><line style="stroke:#181818;stroke-width:1;" x1="65.3672" x2="65.3672" y1="267.8906" y2="287.8906"/><polygon fill="#181818" points="61.3672,277.8906,65.3672,287.8906,69.3672,277.8906,65.3672,281.8906" style="stroke:#181818;stroke-width:1;"/><line style="stroke:#181818;stroke-width:1;" x1="363.9927" x2="363.9927" y1="267.8906" y2="287.8906"/><polygon fill="#181818" points="359.9927,277.8906,363.9927,287.8906,367.9927,277.8906,363.9927,281.8906" style="stroke:#181818;stroke-width:1;"/><line style="stroke:#181818;stroke-width:1;" x1="363.9927" x2="363.9927" y1="405.6875" y2="425.6875"/><polygon fill="#181818" points="359.9927,415.6875,363.9927,425.6875,367.9927,415.6875,363.9927,419.6875" style="stroke:#181818;stroke-width:1;"/><line style="stroke:#181818;stroke-width:1;" x1="235.7842" x2="235.7842" y1="549.875" y2="584.875"/><polygon fill="#181818" points="231.7842,574.875,235.7842,584.875,239.7842,574.875,235.7842,578.875" style="stroke:#181818;stroke-width:1;"/><line style="stroke:#181818;stroke-width:1;" x1="492.2012" x2="492.2012" y1="650.875" y2="675.793"/><polygon fill="#181818" points="488.2012,665.793,492.2012,675.793,496.2012,665.793,492.2012,669.793" style="stroke:#181818;stroke-width:1;"/><line style="stroke:#181818;stroke-width:1;" x1="538.7588" x2="629.9336" y1="638.875" y2="638.875"/><polygon fill="#181818" points="625.9336,683.3398,629.9336,693.3398,633.9336,683.3398,629.9336,687.3398" style="stroke:#181818;stroke-width:1;"/><line style="stroke:#181818;stroke-width:1;" x1="629.9336" x2="629.9336" y1="638.875" y2="742.8867"/><line style="stroke:#181818;stroke-width:1;" x1="629.9336" x2="504.2012" y1="742.8867" y2="742.8867"/><polygon fill="#181818" points="514.2012,738.8867,504.2012,742.8867,514.2012,746.8867,510.2012,742.8867" style="stroke:#181818;stroke-width:1;"/><line style="stroke:#181818;stroke-width:1;" x1="492.2012" x2="492.2012" y1="710.8867" y2="730.8867"/><polygon fill="#181818" points="488.2012,720.8867,492.2012,730.8867,496.2012,720.8867,492.2012,724.8867" style="stroke:#181818;stroke-width:1;"/><line style="stroke:#181818;stroke-width:1;" x1="492.2012" x2="492.2012" y1="598.793" y2="626.875"/><polygon fill="#181818" points="488.2012,616.875,492.2012,626.875,496.2012,616.875,492.2012,620.875" style="stroke:#181818;stroke-width:1;"/><line style="stroke:#181818;stroke-width:1;" x1="492.2012" x2="492.2012" y1="538.7813" y2="563.6992"/><polygon fill="#181818" points="488.2012,553.6992,492.2012,563.6992,496.2012,553.6992,492.2012,557.6992" style="stroke:#181818;stroke-width:1;"/><line style="stroke:#181818;stroke-width:1;" x1="549.1438" x2="652.5684" y1="526.7813" y2="526.7813"/><polygon fill="#181818" points="648.5684,648.293,652.5684,658.293,656.5684,648.293,652.5684,652.293" style="stroke:#181818;stroke-width:1;"/><line style="stroke:#181818;stroke-width:1;" x1="652.5684" x2="652.5684" y1="526.7813" y2="786.8867"/><line style="stroke:#181818;stroke-width:1;" x1="652.5684" x2="504.2012" y1="786.8867" y2="786.8867"/><polygon fill="#181818" points="514.2012,782.8867,504.2012,786.8867,514.2012,790.8867,510.2012,786.8867" style="stroke:#181818;stroke-width:1;"/><line style="stroke:#181818;stroke-width:1;" x1="492.2012" x2="492.2012" y1="754.8867" y2="774.8867"/><polygon fill="#181818" points="488.2012,764.8867,492.2012,774.8867,496.2012,764.8867,492.2012,768.8867" style="stroke:#181818;stroke-width:1;"/><line style="stroke:#181818;stroke-width:1;" x1="492.2012" x2="492.2012" y1="798.8867" y2="818.8867"/><polygon fill="#181818" points="488.2012,808.8867,492.2012,818.8867,496.2012,808.8867,492.2012,812.8867" style="stroke:#181818;stroke-width:1;"/><line style="stroke:#181818;stroke-width:1;" x1="492.2012" x2="492.2012" y1="853.9805" y2="873.9805"/><polygon fill="#181818" points="488.2012,863.9805,492.2012,873.9805,496.2012,863.9805,492.2012,867.9805" style="stroke:#181818;stroke-width:1;"/><line style="stroke:#181818;stroke-width:1;" x1="492.2012" x2="492.2012" y1="909.0742" y2="929.0742"/><polygon fill="#181818" points="488.2012,919.0742,492.2012,929.0742,496.2012,919.0742,492.2012,923.0742" style="stroke:#181818;stroke-width:1;"/><line style="stroke:#181818;stroke-width:1;" x1="322.3335" x2="235.7842" y1="492.7813" y2="492.7813"/><line style="stroke:#181818;stroke-width:1;" x1="235.7842" x2="235.7842" y1="492.7813" y2="514.7813"/><polygon fill="#181818" points="231.7842,504.7813,235.7842,514.7813,239.7842,504.7813,235.7842,508.7813" style="stroke:#181818;stroke-width:1;"/><line style="stroke:#181818;stroke-width:1;" x1="405.6519" x2="492.2012" y1="492.7813" y2="492.7813"/><line style="stroke:#181818;stroke-width:1;" x1="492.2012" x2="492.2012" y1="492.7813" y2="514.7813"/><polygon fill="#181818" points="488.2012,504.7813,492.2012,514.7813,496.2012,504.7813,492.2012,508.7813" style="stroke:#181818;stroke-width:1;"/><line style="stroke:#181818;stroke-width:1;" x1="492.2012" x2="492.2012" y1="964.168" y2="969.168"/><line style="stroke:#181818;stroke-width:1;" x1="492.2012" x2="363.9927" y1="969.168" y2="969.168"/><line style="stroke:#181818;stroke-width:1;" x1="363.9927" x2="363.9927" y1="969.168" y2="996.168"/><polygon fill="#181818" points="359.9927,986.168,363.9927,996.168,367.9927,986.168,363.9927,990.168" style="stroke:#181818;stroke-width:1;"/><line style="stroke:#181818;stroke-width:1;" x1="363.9927" x2="363.9927" y1="460.7813" y2="480.7813"/><polygon fill="#181818" points="359.9927,470.7813,363.9927,480.7813,367.9927,470.7813,363.9927,474.7813" style="stroke:#181818;stroke-width:1;"/><line style="stroke:#181818;stroke-width:1;" x1="363.9927" x2="363.9927" y1="322.9844" y2="370.5938"/><polygon fill="#181818" points="359.9927,360.5938,363.9927,370.5938,367.9927,360.5938,363.9927,364.5938" style="stroke:#181818;stroke-width:1;"/><line style="stroke:#181818;stroke-width:1;" x1="363.9927" x2="363.9927" y1="1031.2617" y2="1051.2617"/><polygon fill="#181818" points="359.9927,1041.2617,363.9927,1051.2617,367.9927,1041.2617,363.9927,1045.2617" style="stroke:#181818;stroke-width:1;"/><line style="stroke:#181818;stroke-width:1;" x1="159.6279" x2="65.3672" y1="210.7969" y2="210.7969"/><line style="stroke:#181818;stroke-width:1;" x1="65.3672" x2="65.3672" y1="210.7969" y2="232.7969"/><polygon fill="#181818" points="61.3672,222.7969,65.3672,232.7969,69.3672,222.7969,65.3672,226.7969" style="stroke:#181818;stroke-width:1;"/><line style="stroke:#181818;stroke-width:1;" x1="269.7319" x2="363.9927" y1="210.7969" y2="210.7969"/><line style="stroke:#181818;stroke-width:1;" x1="363.9927" x2="363.9927" y1="210.7969" y2="232.7969"/><polygon fill="#181818" points="359.9927,222.7969,363.9927,232.7969,367.9927,222.7969,363.9927,226.7969" style="stroke:#181818;stroke-width:1;"/><line style="stroke:#181818;stroke-width:1;" x1="214.6799" x2="214.6799" y1="178.7969" y2="198.7969"/><polygon fill="#181818" points="210.6799,188.7969,214.6799,198.7969,218.6799,188.7969,214.6799,192.7969" style="stroke:#181818;stroke-width:1;"/><?plantuml-src RLF1Qjj04BthAuOSQkaNh4Df7EWXFhHreEUrj9OMgxkgj38rfOUIGmwXa512wQaH9kGGIWljIKlfGSR_iN_IsPLbAQx164dpzhsPDsybamc5oQQ4zRLMdo4MkYgbVVdA8tWUCyYrke4qPhhwMy2xGbTt4kQn0FTLNKc8jFh4FSV99ScaCnphwdjw2CtZkap1FSd8J7g-CpnbMfs_0PaHa77z6xKaup3LrGy9qmBL0rZKjn1hjKeXqUh2Tnms0_Ui0tUrfnwIK0xkgQrw3i3mk2w5ANvXg6sxIb3oel2nc4kHEZJ9ARYZ-fU5dnHBhCe3hVkMpJQ6jbJt1KIjA-uBaPjf0F2NeW5CCi7XQ6VR4nXPQTk1PJk2zuX5nfV5qjfyOw7Na6n-uZmuMiI8W52hoo26XLOV4RKfkNcyX00NXUXlViFHDn6tnwtJSzHQ6O8x7ZKu-sVCMrzfTTz13zXcQNlMpHkxJQEzW_uMQNqq3u-yRDNm5TwYZIiEIVq79ZHZ9Dbfzi2F9p5h3_gkoGmpQNQE4M8Gr6MmvOASuEV1H2JXmDznjTAOfPM0kBxbyM5Hb3r3Ph4NmFOGkAz9bX4kboEne1c9gDU9K1wocVF_SslXMQRLmzvYknMv4oc2-J5920ywrg69ZPsPOqkwKZtic8OHpJmCrBCYP1B68jeT6yKck-TypwWsoOr9wwjwjGlke4ak3RVQxGGVcYGFjvTiQdBGkyEoyIKmnUuQcRF_0000?></g></svg>