<?plantuml 1.2026.2?><svg xmlns="http://www.w3.org/2000/svg" xmlns:xlink="http://www.w3.org/1999/xlink" contentStyleType="text/css" data-diagram-type="ACTIVITY" height="1795px" preserveAspectRatio="none" style="width:1151px;height:1795px;background:#FFFFFF;" version="1.1" viewBox="0 0 1151 1795" width="1151px" zoomAndPan="magnify"><title>Activity Ki&#7875;m K&#234; v&#224; &#272;i&#7873;u Ch&#7881;nh T&#7891;n</title><defs/><g><g class="title" data-source-line="609"><text fill="#000000" font-family="sans-serif" font-size="14" font-weight="bold" lengthAdjust="spacing" textLength="237.2617" x="455.7786" y="34.5332">Activity Ki&#7875;m K&#234; v&#224; &#272;i&#7873;u Ch&#7881;nh T&#7891;n</text></g><ellipse cx="718.6154" cy="58.6094" fill="#222222" rx="10" ry="10" style="stroke:#222222;stroke-width:1;"/><rect fill="none" height="194.8906" style="stroke:#000000;stroke-width:1.5;" width="350.166" x="543.5323" y="78.6094"/><path d="M583.0909,78.6094 L583.0909,89.2188 L573.0909,99.2188 L543.5323,99.2188" fill="none" style="stroke:#000000;stroke-width:1.5;"/><text fill="#000000" font-family="sans-serif" font-size="14" lengthAdjust="spacing" textLength="29.5586" x="546.5323" y="94.1426">User</text><rect fill="#F1F1F1" height="35.0938" rx="12.5" ry="12.5" style="stroke:#181818;stroke-width:0.5;" width="142.6016" x="647.3146" y="116.2188"/><text fill="#000000" font-family="sans-serif" font-size="12" lengthAdjust="spacing" textLength="122.6016" x="657.3146" y="138.6758">Kh&#7903;i t&#7841;o phi&#234;n ki&#7875;m k&#234;</text><rect fill="#F1F1F1" height="35.0938" rx="12.5" ry="12.5" style="stroke:#181818;stroke-width:0.5;" width="330.166" x="553.5323" y="171.3125"/><text fill="#000000" font-family="sans-serif" font-size="12" lengthAdjust="spacing" textLength="310.166" x="563.5323" y="193.7695">Ch&#7885;n ph&#7841;m vi ki&#7875;m k&#234; theo s&#7843;n ph&#7849;m / nh&#243;m h&#224;ng / serial</text><rect fill="#F1F1F1" height="35.0938" rx="12.5" ry="12.5" style="stroke:#181818;stroke-width:0.5;" width="284.6504" x="576.2902" y="226.4063"/><text fill="#000000" font-family="sans-serif" font-size="12" lengthAdjust="spacing" textLength="264.6504" x="586.2902" y="248.8633">Nh&#7853;p s&#7889; l&#432;&#7907;ng h&#7879; th&#7889;ng v&#224; s&#7889; l&#432;&#7907;ng &#273;&#7871;m th&#7921;c t&#7871;</text><rect fill="none" height="84.7031" style="stroke:#000000;stroke-width:1.5;" width="222.4375" x="607.3966" y="283.5"/><path d="M711.5411,283.5 L711.5411,294.1094 L701.5411,304.1094 L607.3966,304.1094" fill="none" style="stroke:#000000;stroke-width:1.5;"/><text fill="#000000" font-family="sans-serif" font-size="14" lengthAdjust="spacing" textLength="94.1445" x="610.3966" y="299.0332">ViewModel / UI</text><rect fill="#F1F1F1" height="35.0938" rx="12.5" ry="12.5" style="stroke:#181818;stroke-width:0.5;" width="202.4375" x="617.3966" y="321.1094"/><text fill="#000000" font-family="sans-serif" font-size="12" lengthAdjust="spacing" textLength="182.4375" x="627.3966" y="343.5664">G&#225;n WarehouseId = kho m&#7863;c &#273;&#7883;nh</text><rect fill="none" height="84.7031" style="stroke:#000000;stroke-width:1.5;" width="139.0615" x="649.0846" y="378.7793"/><path d="M778.1461,378.7793 L778.1461,389.3887 L768.1461,399.3887 L649.0846,399.3887" fill="none" style="stroke:#000000;stroke-width:1.5;"/><text fill="#000000" font-family="sans-serif" font-size="14" lengthAdjust="spacing" textLength="119.0615" x="652.0846" y="394.3125">Application Service</text><rect fill="#F1F1F1" height="35.0938" rx="12.5" ry="12.5" style="stroke:#181818;stroke-width:0.5;" width="105.3887" x="665.921" y="416.3887"/><text fill="#000000" font-family="sans-serif" font-size="12" lengthAdjust="spacing" textLength="85.3887" x="675.921" y="438.8457">T&#237;nh ch&#234;nh l&#7879;ch</text><polygon fill="#F1F1F1" points="680.3947,483.4824,756.8361,483.4824,768.8361,495.4824,756.8361,507.4824,680.3947,507.4824,668.3947,495.4824,680.3947,483.4824" style="stroke:#181818;stroke-width:0.5;"/><text fill="#000000" font-family="sans-serif" font-size="11" lengthAdjust="spacing" textLength="76.4414" x="680.3947" y="499.9834">C&#243; ch&#234;nh l&#7879;ch?</text><text fill="#000000" font-family="sans-serif" font-size="11" lengthAdjust="spacing" textLength="14.0615" x="654.3331" y="493.0654">C&#243;</text><text fill="#000000" font-family="sans-serif" font-size="11" lengthAdjust="spacing" textLength="31.8076" x="768.8361" y="493.0654">Kh&#244;ng</text><rect fill="none" height="201.8906" style="stroke:#000000;stroke-width:1.5;" width="278.2422" x="303.3757" y="517.4824"/><path d="M342.9343,517.4824 L342.9343,528.0918 L332.9343,538.0918 L303.3757,538.0918" fill="none" style="stroke:#000000;stroke-width:1.5;"/><text fill="#000000" font-family="sans-serif" font-size="14" lengthAdjust="spacing" textLength="29.5586" x="306.3757" y="533.0156">User</text><rect fill="#F1F1F1" height="35.0938" rx="12.5" ry="12.5" style="stroke:#181818;stroke-width:0.5;" width="258.2422" x="313.3757" y="555.0918"/><text fill="#000000" font-family="sans-serif" font-size="12" lengthAdjust="spacing" textLength="238.2422" x="323.3757" y="577.5488">L&#7853;p ch&#7913;ng t&#7915; &#273;i&#7873;u ch&#7881;nh ho&#7863;c &#273;&#7843;o nghi&#7879;p v&#7909;</text><rect fill="#F1F1F1" height="35.0938" rx="12.5" ry="12.5" style="stroke:#181818;stroke-width:0.5;" width="244.2031" x="320.3953" y="617.1855"/><text fill="#000000" font-family="sans-serif" font-size="12" lengthAdjust="spacing" textLength="224.2031" x="330.3953" y="639.6426">Ghi r&#245; ch&#7913;ng t&#7915; ngu&#7891;n v&#224; l&#253; do &#273;i&#7873;u ch&#7881;nh</text><rect fill="#F1F1F1" height="35.0938" rx="12.5" ry="12.5" style="stroke:#181818;stroke-width:0.5;" width="182.8555" x="351.0691" y="672.2793"/><text fill="#000000" font-family="sans-serif" font-size="12" lengthAdjust="spacing" textLength="162.8555" x="361.0691" y="694.7363">G&#7917;i duy&#7879;t ch&#7913;ng t&#7915; &#273;i&#7873;u ch&#7881;nh</text><rect fill="none" height="84.7031" style="stroke:#000000;stroke-width:1.5;" width="114.0449" x="385.4744" y="729.373"/><path d="M450.7292,729.373 L450.7292,739.9824 L440.7292,749.9824 L385.4744,749.9824" fill="none" style="stroke:#000000;stroke-width:1.5;"/><text fill="#000000" font-family="sans-serif" font-size="14" lengthAdjust="spacing" textLength="55.2549" x="388.4744" y="744.9063">Manager</text><rect fill="#F1F1F1" height="35.0938" rx="12.5" ry="12.5" style="stroke:#181818;stroke-width:0.5;" width="94.0449" x="395.4744" y="766.9824"/><text fill="#000000" font-family="sans-serif" font-size="12" lengthAdjust="spacing" textLength="74.0449" x="405.4744" y="789.4395">Qu&#7843;n l&#253; duy&#7879;t</text><polygon fill="#F1F1F1" points="410.4448,834.0762,474.5488,834.0762,486.5488,846.0762,474.5488,858.0762,410.4448,858.0762,398.4448,846.0762,410.4448,834.0762" style="stroke:#181818;stroke-width:0.5;"/><text fill="#000000" font-family="sans-serif" font-size="11" lengthAdjust="spacing" textLength="64.104" x="410.4448" y="850.5771">&#272;&#432;&#7907;c duy&#7879;t?</text><text fill="#000000" font-family="sans-serif" font-size="11" lengthAdjust="spacing" textLength="14.0615" x="384.3833" y="843.6592">C&#243;</text><text fill="#000000" font-family="sans-serif" font-size="11" lengthAdjust="spacing" textLength="31.8076" x="486.5488" y="843.6592">Kh&#244;ng</text><rect fill="none" height="279.6875" style="stroke:#000000;stroke-width:1.5;" width="559.4692" x="11" y="868.0762"/><path d="M140.0615,868.0762 L140.0615,878.6855 L130.0615,888.6855 L11,888.6855" fill="none" style="stroke:#000000;stroke-width:1.5;"/><text fill="#000000" font-family="sans-serif" font-size="14" lengthAdjust="spacing" textLength="119.0615" x="14" y="883.6094">Application Service</text><rect fill="#F1F1F1" height="35.0938" rx="12.5" ry="12.5" style="stroke:#181818;stroke-width:0.5;" width="123.4004" x="118.7344" y="905.6855"/><text fill="#000000" font-family="sans-serif" font-size="12" lengthAdjust="spacing" textLength="103.4004" x="128.7344" y="928.1426">B&#7855;t &#273;&#7847;u transaction</text><path d="M313.1816,967.7793 L313.1816,985.1309 L293.1816,989.1309 L313.1816,993.1309 L313.1816,1010.4824 A0,0 0 0 0 313.1816,1010.4824 L560.4692,1010.4824 A0,0 0 0 0 560.4692,1010.4824 L560.4692,977.7793 L550.4692,967.7793 L313.1816,967.7793 A0,0 0 0 0 313.1816,967.7793" fill="#FEFFDD" style="stroke:#181818;stroke-width:0.5;"/><path d="M550.4692,967.7793 L550.4692,977.7793 L560.4692,977.7793 L550.4692,967.7793" fill="#FEFFDD" style="stroke:#181818;stroke-width:0.5;"/><text fill="#000000" font-family="sans-serif" font-size="13" lengthAdjust="spacing" textLength="226.2876" x="319.1816" y="986.2744">Gi&#7919; th&#7913; t&#7921; kh&#243;a c&#7889; &#273;&#7883;nh theo ProductId</text><text fill="#000000" font-family="sans-serif" font-size="13" lengthAdjust="spacing" textLength="155.9492" x="319.1816" y="1002.626">&#273;&#7875; gi&#7843;m nguy c&#417; deadlock.</text><rect fill="#F1F1F1" height="35.0938" rx="12.5" ry="12.5" style="stroke:#181818;stroke-width:0.5;" width="225.4941" x="67.6875" y="971.584"/><text fill="#000000" font-family="sans-serif" font-size="12" lengthAdjust="spacing" textLength="205.4941" x="77.6875" y="994.041">S&#7855;p x&#7871;p d&#242;ng theo ProductId t&#259;ng d&#7847;n</text><rect fill="#F1F1F1" height="50.1875" rx="12.5" ry="12.5" style="stroke:#181818;stroke-width:0.5;" width="272.2285" x="44.3203" y="1030.4824"/><text fill="#000000" font-family="sans-serif" font-size="12" lengthAdjust="spacing" textLength="252.2285" x="54.3203" y="1052.9395">Kh&#243;a StockBalance theo &#273;&#250;ng th&#7913; t&#7921; ProductId</text><text fill="#000000" font-family="sans-serif" font-size="12" lengthAdjust="spacing" textLength="144.0762" x="54.3203" y="1068.0332">trong Warehouse m&#7863;c &#273;&#7883;nh</text><rect fill="#F1F1F1" height="35.0938" rx="12.5" ry="12.5" style="stroke:#181818;stroke-width:0.5;" width="318.8691" x="21" y="1100.6699"/><text fill="#000000" font-family="sans-serif" font-size="12" lengthAdjust="spacing" textLength="298.8691" x="31" y="1123.127">C&#7853;p nh&#7853;t StockBalance t&#259;ng ho&#7863;c gi&#7843;m theo ch&#234;nh l&#7879;ch</text><rect fill="none" height="84.7031" style="stroke:#000000;stroke-width:1.5;" width="323.3711" x="18.749" y="1214.6826"/><path d="M167.2656,1214.6826 L167.2656,1225.292 L157.2656,1235.292 L18.749,1235.292" fill="none" style="stroke:#000000;stroke-width:1.5;"/><text fill="#000000" font-family="sans-serif" font-size="14" lengthAdjust="spacing" textLength="138.5166" x="21.749" y="1230.2158">Repository / Database</text><rect fill="#F1F1F1" height="35.0938" rx="12.5" ry="12.5" style="stroke:#181818;stroke-width:0.5;" width="303.3711" x="28.749" y="1252.292"/><text fill="#000000" font-family="sans-serif" font-size="12" lengthAdjust="spacing" textLength="283.3711" x="38.749" y="1274.749">C&#7853;p nh&#7853;t ProductSerial theo tr&#7841;ng th&#225;i nghi&#7879;p v&#7909; m&#7899;i</text><polygon fill="#F1F1F1" points="118.675,1167.7637,242.1941,1167.7637,254.1941,1179.7637,242.1941,1191.7637,118.675,1191.7637,106.675,1179.7637,118.675,1167.7637" style="stroke:#181818;stroke-width:0.5;"/><text fill="#000000" font-family="sans-serif" font-size="11" lengthAdjust="spacing" textLength="14.0615" x="184.4346" y="1203.1826">C&#243;</text><text fill="#000000" font-family="sans-serif" font-size="11" lengthAdjust="spacing" textLength="123.519" x="118.675" y="1184.2646">C&#243; serial c&#7847;n &#273;i&#7873;u ch&#7881;nh?</text><polygon fill="#F1F1F1" points="180.4346,1319.3857,192.4346,1331.3857,180.4346,1343.3857,168.4346,1331.3857,180.4346,1319.3857" style="stroke:#181818;stroke-width:0.5;"/><rect fill="none" height="139.7969" style="stroke:#000000;stroke-width:1.5;" width="196.0996" x="82.3848" y="1353.3857"/><path d="M230.9014,1353.3857 L230.9014,1363.9951 L220.9014,1373.9951 L82.3848,1373.9951" fill="none" style="stroke:#000000;stroke-width:1.5;"/><text fill="#000000" font-family="sans-serif" font-size="14" lengthAdjust="spacing" textLength="138.5166" x="85.3848" y="1368.9189">Repository / Database</text><rect fill="#F1F1F1" height="35.0938" rx="12.5" ry="12.5" style="stroke:#181818;stroke-width:0.5;" width="176.0996" x="92.3848" y="1390.9951"/><text fill="#000000" font-family="sans-serif" font-size="12" lengthAdjust="spacing" textLength="156.0996" x="102.3848" y="1413.4521">Ghi StockLedger v&#224; AuditLog</text><rect fill="#F1F1F1" height="35.0938" rx="12.5" ry="12.5" style="stroke:#181818;stroke-width:0.5;" width="123.3652" x="118.752" y="1446.0889"/><text fill="#000000" font-family="sans-serif" font-size="12" lengthAdjust="spacing" textLength="103.3652" x="128.752" y="1468.5459">Commit transaction</text><rect fill="none" height="84.7031" style="stroke:#000000;stroke-width:1.5;" width="245.1953" x="57.8369" y="1503.1826"/><path d="M186.8984,1503.1826 L186.8984,1513.792 L176.8984,1523.792 L57.8369,1523.792" fill="none" style="stroke:#000000;stroke-width:1.5;"/><text fill="#000000" font-family="sans-serif" font-size="14" lengthAdjust="spacing" textLength="119.0615" x="60.8369" y="1518.7158">Application Service</text><rect fill="#F1F1F1" height="35.0938" rx="12.5" ry="12.5" style="stroke:#181818;stroke-width:0.5;" width="225.1953" x="67.8369" y="1540.792"/><text fill="#000000" font-family="sans-serif" font-size="12" lengthAdjust="spacing" textLength="205.1953" x="77.8369" y="1563.249">C&#7853;p nh&#7853;t tr&#7841;ng th&#225;i ch&#7913;ng t&#7915; = Posted</text><rect fill="none" height="84.7031" style="stroke:#000000;stroke-width:1.5;" width="160.0996" x="100.3848" y="1597.8857"/><path d="M204.5293,1597.8857 L204.5293,1608.4951 L194.5293,1618.4951 L100.3848,1618.4951" fill="none" style="stroke:#000000;stroke-width:1.5;"/><text fill="#000000" font-family="sans-serif" font-size="14" lengthAdjust="spacing" textLength="94.1445" x="103.3848" y="1613.4189">ViewModel / UI</text><rect fill="#F1F1F1" height="35.0938" rx="12.5" ry="12.5" style="stroke:#181818;stroke-width:0.5;" width="140.0996" x="110.3848" y="1635.4951"/><text fill="#000000" font-family="sans-serif" font-size="12" lengthAdjust="spacing" textLength="120.0996" x="120.3848" y="1657.9521">Th&#244;ng b&#225;o th&#224;nh c&#244;ng</text><rect fill="none" height="84.7031" style="stroke:#000000;stroke-width:1.5;" width="228.1797" x="590.4692" y="868.0762"/><path d="M655.7241,868.0762 L655.7241,878.6855 L645.7241,888.6855 L590.4692,888.6855" fill="none" style="stroke:#000000;stroke-width:1.5;"/><text fill="#000000" font-family="sans-serif" font-size="14" lengthAdjust="spacing" textLength="55.2549" x="593.4692" y="883.6094">Manager</text><rect fill="#F1F1F1" height="35.0938" rx="12.5" ry="12.5" style="stroke:#181818;stroke-width:0.5;" width="208.1797" x="600.4692" y="905.6855"/><text fill="#000000" font-family="sans-serif" font-size="12" lengthAdjust="spacing" textLength="188.1797" x="610.4692" y="928.1426">Tr&#7843; ch&#7913;ng t&#7915; v&#7873; Draft &#273;&#7875; ch&#7881;nh s&#7917;a</text><polygon fill="#F1F1F1" points="442.4968,1688.5889,454.4968,1700.5889,442.4968,1712.5889,430.4968,1700.5889,442.4968,1688.5889" style="stroke:#181818;stroke-width:0.5;"/><rect fill="none" height="84.7031" style="stroke:#000000;stroke-width:1.5;" width="292.1699" x="848.6489" y="517.4824"/><path d="M952.7935,517.4824 L952.7935,528.0918 L942.7935,538.0918 L848.6489,538.0918" fill="none" style="stroke:#000000;stroke-width:1.5;"/><text fill="#000000" font-family="sans-serif" font-size="14" lengthAdjust="spacing" textLength="94.1445" x="851.6489" y="533.0156">ViewModel / UI</text><rect fill="#F1F1F1" height="35.0938" rx="12.5" ry="12.5" style="stroke:#181818;stroke-width:0.5;" width="272.1699" x="858.6489" y="555.0918"/><text fill="#000000" font-family="sans-serif" font-size="12" lengthAdjust="spacing" textLength="252.1699" x="868.6489" y="577.5488">&#272;&#243;ng phi&#234;n ki&#7875;m k&#234; kh&#244;ng ph&#225;t sinh &#273;i&#7873;u ch&#7881;nh</text><polygon fill="#F1F1F1" points="718.6154,1718.5889,730.6154,1730.5889,718.6154,1742.5889,706.6154,1730.5889,718.6154,1718.5889" style="stroke:#181818;stroke-width:0.5;"/><ellipse cx="718.6154" cy="1773.5889" fill="none" rx="11" ry="11" style="stroke:#222222;stroke-width:1;"/><ellipse cx="718.6154" cy="1773.5889" fill="#222222" rx="6" ry="6" style="stroke:#222222;stroke-width:1;"/><line style="stroke:#181818;stroke-width:1;" x1="718.6154" x2="718.6154" y1="151.3125" y2="171.3125"/><polygon fill="#181818" points="714.6154,161.3125,718.6154,171.3125,722.6154,161.3125,718.6154,165.3125" style="stroke:#181818;stroke-width:1;"/><line style="stroke:#181818;stroke-width:1;" x1="718.6154" x2="718.6154" y1="206.4063" y2="226.4063"/><polygon fill="#181818" points="714.6154,216.4063,718.6154,226.4063,722.6154,216.4063,718.6154,220.4063" style="stroke:#181818;stroke-width:1;"/><line style="stroke:#181818;stroke-width:1;" x1="718.6154" x2="718.6154" y1="68.6094" y2="116.2188"/><polygon fill="#181818" points="714.6154,106.2188,718.6154,116.2188,722.6154,106.2188,718.6154,110.2188" style="stroke:#181818;stroke-width:1;"/><line style="stroke:#181818;stroke-width:1;" x1="718.6154" x2="718.6154" y1="261.5" y2="321.1094"/><polygon fill="#181818" points="714.6154,311.1094,718.6154,321.1094,722.6154,311.1094,718.6154,315.1094" style="stroke:#181818;stroke-width:1;"/><line style="stroke:#181818;stroke-width:1;" x1="718.6154" x2="718.6154" y1="356.2031" y2="416.3887"/><polygon fill="#181818" points="714.6154,406.3887,718.6154,416.3887,722.6154,406.3887,718.6154,410.3887" style="stroke:#181818;stroke-width:1;"/><line style="stroke:#181818;stroke-width:1;" x1="442.4968" x2="442.4968" y1="590.1855" y2="617.1855"/><polygon fill="#181818" points="438.4968,607.1855,442.4968,617.1855,446.4968,607.1855,442.4968,611.1855" style="stroke:#181818;stroke-width:1;"/><line style="stroke:#181818;stroke-width:1;" x1="442.4968" x2="442.4968" y1="652.2793" y2="672.2793"/><polygon fill="#181818" points="438.4968,662.2793,442.4968,672.2793,446.4968,662.2793,442.4968,666.2793" style="stroke:#181818;stroke-width:1;"/><line style="stroke:#181818;stroke-width:1;" x1="442.4968" x2="442.4968" y1="707.373" y2="766.9824"/><polygon fill="#181818" points="438.4968,756.9824,442.4968,766.9824,446.4968,756.9824,442.4968,760.9824" style="stroke:#181818;stroke-width:1;"/><line style="stroke:#181818;stroke-width:1;" x1="180.4346" x2="180.4346" y1="940.7793" y2="971.584"/><polygon fill="#181818" points="176.4346,961.584,180.4346,971.584,184.4346,961.584,180.4346,965.584" style="stroke:#181818;stroke-width:1;"/><line style="stroke:#181818;stroke-width:1;" x1="180.4346" x2="180.4346" y1="1006.6777" y2="1030.4824"/><polygon fill="#181818" points="176.4346,1020.4824,180.4346,1030.4824,184.4346,1020.4824,180.4346,1024.4824" style="stroke:#181818;stroke-width:1;"/><line style="stroke:#181818;stroke-width:1;" x1="180.4346" x2="180.4346" y1="1080.6699" y2="1100.6699"/><polygon fill="#181818" points="176.4346,1090.6699,180.4346,1100.6699,184.4346,1090.6699,180.4346,1094.6699" style="stroke:#181818;stroke-width:1;"/><line style="stroke:#181818;stroke-width:1;" x1="180.4346" x2="180.4346" y1="1191.7637" y2="1252.292"/><polygon fill="#181818" points="176.4346,1242.292,180.4346,1252.292,184.4346,1242.292,180.4346,1246.292" style="stroke:#181818;stroke-width:1;"/><line style="stroke:#181818;stroke-width:1;" x1="254.1941" x2="352.1201" y1="1179.7637" y2="1179.7637"/><polygon fill="#181818" points="348.1201,1251.0342,352.1201,1261.0342,356.1201,1251.0342,352.1201,1255.0342" style="stroke:#181818;stroke-width:1;"/><line style="stroke:#181818;stroke-width:1;" x1="352.1201" x2="352.1201" y1="1179.7637" y2="1331.3857"/><line style="stroke:#181818;stroke-width:1;" x1="352.1201" x2="192.4346" y1="1331.3857" y2="1331.3857"/><polygon fill="#181818" points="202.4346,1327.3857,192.4346,1331.3857,202.4346,1335.3857,198.4346,1331.3857" style="stroke:#181818;stroke-width:1;"/><line style="stroke:#181818;stroke-width:1;" x1="180.4346" x2="180.4346" y1="1287.3857" y2="1319.3857"/><polygon fill="#181818" points="176.4346,1309.3857,180.4346,1319.3857,184.4346,1309.3857,180.4346,1313.3857" style="stroke:#181818;stroke-width:1;"/><line style="stroke:#181818;stroke-width:1;" x1="180.4346" x2="180.4346" y1="1135.7637" y2="1167.7637"/><polygon fill="#181818" points="176.4346,1157.7637,180.4346,1167.7637,184.4346,1157.7637,180.4346,1161.7637" style="stroke:#181818;stroke-width:1;"/><line style="stroke:#181818;stroke-width:1;" x1="180.4346" x2="180.4346" y1="1426.0889" y2="1446.0889"/><polygon fill="#181818" points="176.4346,1436.0889,180.4346,1446.0889,184.4346,1436.0889,180.4346,1440.0889" style="stroke:#181818;stroke-width:1;"/><line style="stroke:#181818;stroke-width:1;" x1="180.4346" x2="180.4346" y1="1343.3857" y2="1390.9951"/><polygon fill="#181818" points="176.4346,1380.9951,180.4346,1390.9951,184.4346,1380.9951,180.4346,1384.9951" style="stroke:#181818;stroke-width:1;"/><line style="stroke:#181818;stroke-width:1;" x1="180.4346" x2="180.4346" y1="1481.1826" y2="1540.792"/><polygon fill="#181818" points="176.4346,1530.792,180.4346,1540.792,184.4346,1530.792,180.4346,1534.792" style="stroke:#181818;stroke-width:1;"/><line style="stroke:#181818;stroke-width:1;" x1="180.4346" x2="180.4346" y1="1575.8857" y2="1635.4951"/><polygon fill="#181818" points="176.4346,1625.4951,180.4346,1635.4951,184.4346,1625.4951,180.4346,1629.4951" style="stroke:#181818;stroke-width:1;"/><line style="stroke:#181818;stroke-width:1;" x1="398.4448" x2="180.4346" y1="846.0762" y2="846.0762"/><line style="stroke:#181818;stroke-width:1;" x1="180.4346" x2="180.4346" y1="846.0762" y2="905.6855"/><polygon fill="#181818" points="176.4346,895.6855,180.4346,905.6855,184.4346,895.6855,180.4346,899.6855" style="stroke:#181818;stroke-width:1;"/><line style="stroke:#181818;stroke-width:1;" x1="486.5488" x2="704.5591" y1="846.0762" y2="846.0762"/><line style="stroke:#181818;stroke-width:1;" x1="704.5591" x2="704.5591" y1="846.0762" y2="905.6855"/><polygon fill="#181818" points="700.5591,895.6855,704.5591,905.6855,708.5591,895.6855,704.5591,899.6855" style="stroke:#181818;stroke-width:1;"/><line style="stroke:#181818;stroke-width:1;" x1="180.4346" x2="180.4346" y1="1670.5889" y2="1700.5889"/><line style="stroke:#181818;stroke-width:1;" x1="180.4346" x2="430.4968" y1="1700.5889" y2="1700.5889"/><polygon fill="#181818" points="420.4968,1696.5889,430.4968,1700.5889,420.4968,1704.5889,424.4968,1700.5889" style="stroke:#181818;stroke-width:1;"/><line style="stroke:#181818;stroke-width:1;" x1="704.5591" x2="704.5591" y1="940.7793" y2="1700.5889"/><line style="stroke:#181818;stroke-width:1;" x1="704.5591" x2="454.4968" y1="1700.5889" y2="1700.5889"/><polygon fill="#181818" points="464.4968,1696.5889,454.4968,1700.5889,464.4968,1704.5889,460.4968,1700.5889" style="stroke:#181818;stroke-width:1;"/><line style="stroke:#181818;stroke-width:1;" x1="442.4968" x2="442.4968" y1="802.0762" y2="834.0762"/><polygon fill="#181818" points="438.4968,824.0762,442.4968,834.0762,446.4968,824.0762,442.4968,828.0762" style="stroke:#181818;stroke-width:1;"/><line style="stroke:#181818;stroke-width:1;" x1="668.3947" x2="442.4968" y1="495.4824" y2="495.4824"/><line style="stroke:#181818;stroke-width:1;" x1="442.4968" x2="442.4968" y1="495.4824" y2="555.0918"/><polygon fill="#181818" points="438.4968,545.0918,442.4968,555.0918,446.4968,545.0918,442.4968,549.0918" style="stroke:#181818;stroke-width:1;"/><line style="stroke:#181818;stroke-width:1;" x1="768.8361" x2="994.7339" y1="495.4824" y2="495.4824"/><line style="stroke:#181818;stroke-width:1;" x1="994.7339" x2="994.7339" y1="495.4824" y2="555.0918"/><polygon fill="#181818" points="990.7339,545.0918,994.7339,555.0918,998.7339,545.0918,994.7339,549.0918" style="stroke:#181818;stroke-width:1;"/><line style="stroke:#181818;stroke-width:1;" x1="442.4968" x2="442.4968" y1="1712.5889" y2="1730.5889"/><line style="stroke:#181818;stroke-width:1;" x1="442.4968" x2="706.6154" y1="1730.5889" y2="1730.5889"/><polygon fill="#181818" points="696.6154,1726.5889,706.6154,1730.5889,696.6154,1734.5889,700.6154,1730.5889" style="stroke:#181818;stroke-width:1;"/><line style="stroke:#181818;stroke-width:1;" x1="994.7339" x2="994.7339" y1="590.1855" y2="1730.5889"/><line style="stroke:#181818;stroke-width:1;" x1="994.7339" x2="730.6154" y1="1730.5889" y2="1730.5889"/><polygon fill="#181818" points="740.6154,1726.5889,730.6154,1730.5889,740.6154,1734.5889,736.6154,1730.5889" style="stroke:#181818;stroke-width:1;"/><line style="stroke:#181818;stroke-width:1;" x1="718.6154" x2="718.6154" y1="451.4824" y2="483.4824"/><polygon fill="#181818" points="714.6154,473.4824,718.6154,483.4824,722.6154,473.4824,718.6154,477.4824" style="stroke:#181818;stroke-width:1;"/><line style="stroke:#181818;stroke-width:1;" x1="718.6154" x2="718.6154" y1="1742.5889" y2="1762.5889"/><polygon fill="#181818" points="714.6154,1752.5889,718.6154,1762.5889,722.6154,1752.5889,718.6154,1756.5889" style="stroke:#181818;stroke-width:1;"/><?plantuml-src bLLDQzj04BthLmmv9PVs7XDAFY049oMja_RIosQriHPBkq9QkGt5Xv13AAMGq6CFZJ6b9CMagLCA5YM7DVaV-YUTNScE9ISjlGXsP_RDp9it8yMLps2PAjxcwW3gF4kF0gZh2sZhCnYTuFamWLKlIzy93tQozADmOaKYvJWXVhdYKi3SRioYENZh02pMqVKp1vKDkn92Z-iB0QqSjQKlQiR5e7qGQ4IV0DfyoWxAOnBYRDZBxUS1F0RXwK40dZuJJJnXA4vy2_GKFVeXkgUduDz-pz8UUY3uCSBW7HvC4MNpw3GRtWJMuOgQD6zgJcUwbXUSlTwIBlCnrkv6KTMwxWfuIIBcoIHc6ouiGSkJ46J3NzH0fk-5Ly5P3aEVKs8F3HQrEMK5s8xk8vVKGseyy35TQjywV1_cL_MWR7coO3WHrhA0h-zb7K4tBHKKoph7AbMMViEyykxHedkU7ASxx4aGJG_Dno6qi_HBBGTPzpX4-cSPHZGJqtRBfQz_WokhoEFNMThdu2O72Al-cefvq2aNiqK4QKxLyoon8h01SyJy4NuCJwCJsr0wDbPfAc4_s0eRQIKRNYhBojS4L4H4JAXnhOqT6kWGmXkKIWYk_c5gCYhTZgIRK8LYKACZl7GHOF98ICKWuarF5HS0wqZ1fHNUkI7b2XMa1mIeaMSXeGhmvAan7q6J8oM1wSS1qDikk8oulgIjHuKV4wwDEywxRl4R2brMY4y4PJd-w5GFRH6JJ2OHNmaLIRHDf5wLU06zQjKcpFofIWJBHI6r8cCRjQ9t0sExcVVJw3wVR2G4UQmgPhQ_fGu_Pw6CkPBH0Kxj6b5aZyHJFQvcNDJRo0FQz5I4syYoehkyF1p8GVg9ZsllE0NNVDzn_YyDEr-MhKtcejZjI2qdBbURidd7hGm2hcQLsFa_MPSABbTN6iqbs9QnOku3GUvRXnP_nzFNYB6dSSyhivnnfPcREnpcetxcwzPlPYOhysu0CSTUEJTa_n3M8hAlYX4OhpBSwNqo5SbsenhldrKiZaxq06FD_ARCQ5vRW-ugY3b6l7U35Ig8bGp_0000?></g></svg>