<?plantuml 1.2026.2?><svg xmlns="http://www.w3.org/2000/svg" xmlns:xlink="http://www.w3.org/1999/xlink" contentStyleType="text/css" data-diagram-type="DESCRIPTION" height="732px" preserveAspectRatio="none" style="width:1650px;height:732px;background:#FFFFFF;" version="1.1" viewBox="0 0 1650 732" width="1650px" zoomAndPan="magnify"><title>Ki&#7871;n tr&#250;c WPF / MVVM / SQL Server</title><defs/><g><g class="title" data-source-line="1"><text fill="#000000" font-family="sans-serif" font-size="14" font-weight="bold" lengthAdjust="spacing" textLength="237.2686" x="699.3657" y="24.5332">Ki&#7871;n tr&#250;c WPF / MVVM / SQL Server</text></g><!--cluster Presentation--><g class="cluster" data-qualified-name="Presentation" data-source-line="7" id="ent0002"><rect fill="none" height="118" rx="2.5" ry="2.5" style="stroke:#181818;stroke-width:1;" width="412" x="7" y="327.6094"/><text fill="#000000" font-family="sans-serif" font-size="14" font-weight="bold" lengthAdjust="spacing" textLength="84.7998" x="170.6001" y="344.1426">Presentation</text></g><!--cluster Application--><g class="cluster" data-qualified-name="Application" data-source-line="12" id="ent0005"><rect fill="none" height="681" rx="2.5" ry="2.5" style="stroke:#181818;stroke-width:1;" width="200" x="447" y="45.6094"/><text fill="#000000" font-family="sans-serif" font-size="14" font-weight="bold" lengthAdjust="spacing" textLength="76.2207" x="508.8896" y="62.1426">Application</text></g><!--cluster Domain--><g class="cluster" data-qualified-name="Domain" data-source-line="23" id="ent0014"><rect fill="none" height="152" rx="2.5" ry="2.5" style="stroke:#181818;stroke-width:1;" width="535.5" x="675" y="166.6094"/><text fill="#000000" font-family="sans-serif" font-size="14" font-weight="bold" lengthAdjust="spacing" textLength="51.3379" x="917.0811" y="183.1426">Domain</text></g><!--cluster Infrastructure--><g class="cluster" data-qualified-name="Infrastructure" data-source-line="28" id="ent0017"><rect fill="none" height="100" rx="2.5" ry="2.5" style="stroke:#181818;stroke-width:1;" width="899" x="745" y="460.6094"/><text fill="#000000" font-family="sans-serif" font-size="14" font-weight="bold" lengthAdjust="spacing" textLength="91.0205" x="1148.9897" y="477.1426">Infrastructure</text></g><!--entity View--><g class="entity" data-qualified-name="Presentation.View" data-source-line="8" id="ent0003"><rect fill="#F1F1F1" height="65.2188" rx="2.5" ry="2.5" style="stroke:#181818;stroke-width:0.5;" width="113.1172" x="23" y="364.1094"/><rect fill="#F1F1F1" height="10" style="stroke:#181818;stroke-width:0.5;" width="15" x="116.1172" y="369.1094"/><rect fill="#F1F1F1" height="2" style="stroke:#181818;stroke-width:0.5;" width="4" x="114.1172" y="371.1094"/><rect fill="#F1F1F1" height="2" style="stroke:#181818;stroke-width:0.5;" width="4" x="114.1172" y="375.1094"/><text fill="#000000" font-family="sans-serif" font-size="14" lengthAdjust="spacing" textLength="37.3447" x="38" y="398.6426">Views</text><text fill="#000000" font-family="sans-serif" font-size="14" lengthAdjust="spacing" textLength="73.1172" x="38" y="416.252">WPF XAML</text></g><!--entity VM--><g class="entity" data-qualified-name="Presentation.VM" data-source-line="9" id="ent0004"><rect fill="#F1F1F1" height="65.2188" rx="2.5" ry="2.5" style="stroke:#181818;stroke-width:0.5;" width="206.9131" x="196" y="364.1094"/><rect fill="#F1F1F1" height="10" style="stroke:#181818;stroke-width:0.5;" width="15" x="382.9131" y="369.1094"/><rect fill="#F1F1F1" height="2" style="stroke:#181818;stroke-width:0.5;" width="4" x="380.9131" y="371.1094"/><rect fill="#F1F1F1" height="2" style="stroke:#181818;stroke-width:0.5;" width="4" x="380.9131" y="375.1094"/><text fill="#000000" font-family="sans-serif" font-size="14" lengthAdjust="spacing" textLength="75.4756" x="211" y="398.6426">ViewModels</text><text fill="#000000" font-family="sans-serif" font-size="14" lengthAdjust="spacing" textLength="166.9131" x="211" y="416.252">Commands + Validation UI</text></g><!--entity Auth--><g class="entity" data-qualified-name="Application.Auth" data-source-line="13" id="ent0006"><rect fill="#F1F1F1" height="47.6094" rx="2.5" ry="2.5" style="stroke:#181818;stroke-width:0.5;" width="115.4824" x="489.5" y="413.6094"/><rect fill="#F1F1F1" height="10" style="stroke:#181818;stroke-width:0.5;" width="15" x="584.9824" y="418.6094"/><rect fill="#F1F1F1" height="2" style="stroke:#181818;stroke-width:0.5;" width="4" x="582.9824" y="420.6094"/><rect fill="#F1F1F1" height="2" style="stroke:#181818;stroke-width:0.5;" width="4" x="582.9824" y="424.6094"/><text fill="#000000" font-family="sans-serif" font-size="14" lengthAdjust="spacing" textLength="75.4824" x="504.5" y="448.1426">AuthService</text></g><!--entity Authorization--><g class="entity" data-qualified-name="Application.Authorization" data-source-line="14" id="ent0007"><rect fill="#F1F1F1" height="47.6094" rx="2.5" ry="2.5" style="stroke:#181818;stroke-width:0.5;" width="168.3994" x="463" y="496.6094"/><rect fill="#F1F1F1" height="10" style="stroke:#181818;stroke-width:0.5;" width="15" x="611.3994" y="501.6094"/><rect fill="#F1F1F1" height="2" style="stroke:#181818;stroke-width:0.5;" width="4" x="609.3994" y="503.6094"/><rect fill="#F1F1F1" height="2" style="stroke:#181818;stroke-width:0.5;" width="4" x="609.3994" y="507.6094"/><text fill="#000000" font-family="sans-serif" font-size="14" lengthAdjust="spacing" textLength="128.3994" x="478" y="531.1426">AuthorizationService</text></g><!--entity Approval--><g class="entity" data-qualified-name="Application.Approval" data-source-line="15" id="ent0008"><rect fill="#F1F1F1" height="47.6094" rx="2.5" ry="2.5" style="stroke:#181818;stroke-width:0.5;" width="141.9375" x="476" y="579.6094"/><rect fill="#F1F1F1" height="10" style="stroke:#181818;stroke-width:0.5;" width="15" x="597.9375" y="584.6094"/><rect fill="#F1F1F1" height="2" style="stroke:#181818;stroke-width:0.5;" width="4" x="595.9375" y="586.6094"/><rect fill="#F1F1F1" height="2" style="stroke:#181818;stroke-width:0.5;" width="4" x="595.9375" y="590.6094"/><text fill="#000000" font-family="sans-serif" font-size="14" lengthAdjust="spacing" textLength="101.9375" x="491" y="614.1426">ApprovalService</text></g><!--entity Catalog--><g class="entity" data-qualified-name="Application.Catalog" data-source-line="16" id="ent0009"><rect fill="#F1F1F1" height="47.6094" rx="2.5" ry="2.5" style="stroke:#181818;stroke-width:0.5;" width="138.8271" x="477.5" y="81.6094"/><rect fill="#F1F1F1" height="10" style="stroke:#181818;stroke-width:0.5;" width="15" x="596.3271" y="86.6094"/><rect fill="#F1F1F1" height="2" style="stroke:#181818;stroke-width:0.5;" width="4" x="594.3271" y="88.6094"/><rect fill="#F1F1F1" height="2" style="stroke:#181818;stroke-width:0.5;" width="4" x="594.3271" y="92.6094"/><text fill="#000000" font-family="sans-serif" font-size="14" lengthAdjust="spacing" textLength="98.8271" x="492.5" y="116.1426">Catalog Service</text></g><!--entity Inventory--><g class="entity" data-qualified-name="Application.Inventory" data-source-line="17" id="ent0010"><rect fill="#F1F1F1" height="47.6094" rx="2.5" ry="2.5" style="stroke:#181818;stroke-width:0.5;" width="148.1582" x="473" y="164.6094"/><rect fill="#F1F1F1" height="10" style="stroke:#181818;stroke-width:0.5;" width="15" x="601.1582" y="169.6094"/><rect fill="#F1F1F1" height="2" style="stroke:#181818;stroke-width:0.5;" width="4" x="599.1582" y="171.6094"/><rect fill="#F1F1F1" height="2" style="stroke:#181818;stroke-width:0.5;" width="4" x="599.1582" y="175.6094"/><text fill="#000000" font-family="sans-serif" font-size="14" lengthAdjust="spacing" textLength="108.1582" x="488" y="199.1426">Inventory Service</text></g><!--entity Sales--><g class="entity" data-qualified-name="Application.Sales" data-source-line="18" id="ent0011"><rect fill="#F1F1F1" height="47.6094" rx="2.5" ry="2.5" style="stroke:#181818;stroke-width:0.5;" width="125.5928" x="484" y="247.6094"/><rect fill="#F1F1F1" height="10" style="stroke:#181818;stroke-width:0.5;" width="15" x="589.5928" y="252.6094"/><rect fill="#F1F1F1" height="2" style="stroke:#181818;stroke-width:0.5;" width="4" x="587.5928" y="254.6094"/><rect fill="#F1F1F1" height="2" style="stroke:#181818;stroke-width:0.5;" width="4" x="587.5928" y="258.6094"/><text fill="#000000" font-family="sans-serif" font-size="14" lengthAdjust="spacing" textLength="85.5928" x="499" y="282.1426">Sales Service</text></g><!--entity Warranty--><g class="entity" data-qualified-name="Application.Warranty" data-source-line="19" id="ent0012"><rect fill="#F1F1F1" height="47.6094" rx="2.5" ry="2.5" style="stroke:#181818;stroke-width:0.5;" width="147.3584" x="473.5" y="330.6094"/><rect fill="#F1F1F1" height="10" style="stroke:#181818;stroke-width:0.5;" width="15" x="600.8584" y="335.6094"/><rect fill="#F1F1F1" height="2" style="stroke:#181818;stroke-width:0.5;" width="4" x="598.8584" y="337.6094"/><rect fill="#F1F1F1" height="2" style="stroke:#181818;stroke-width:0.5;" width="4" x="598.8584" y="341.6094"/><text fill="#000000" font-family="sans-serif" font-size="14" lengthAdjust="spacing" textLength="107.3584" x="488.5" y="365.1426">Warranty Service</text></g><!--entity Report--><g class="entity" data-qualified-name="Application.Report" data-source-line="20" id="ent0013"><rect fill="#F1F1F1" height="47.6094" rx="2.5" ry="2.5" style="stroke:#181818;stroke-width:0.5;" width="151.2754" x="471.5" y="662.6094"/><rect fill="#F1F1F1" height="10" style="stroke:#181818;stroke-width:0.5;" width="15" x="602.7754" y="667.6094"/><rect fill="#F1F1F1" height="2" style="stroke:#181818;stroke-width:0.5;" width="4" x="600.7754" y="669.6094"/><rect fill="#F1F1F1" height="2" style="stroke:#181818;stroke-width:0.5;" width="4" x="600.7754" y="673.6094"/><text fill="#000000" font-family="sans-serif" font-size="14" lengthAdjust="spacing" textLength="111.2754" x="486.5" y="697.1426">Reporting Service</text></g><!--entity EntitiesComp--><g class="entity" data-qualified-name="Domain.EntitiesComp" data-source-line="24" id="ent0015"><rect fill="#F1F1F1" height="100.4375" rx="2.5" ry="2.5" style="stroke:#181818;stroke-width:0.5;" width="257.834" x="691" y="202.6094"/><rect fill="#F1F1F1" height="10" style="stroke:#181818;stroke-width:0.5;" width="15" x="928.834" y="207.6094"/><rect fill="#F1F1F1" height="2" style="stroke:#181818;stroke-width:0.5;" width="4" x="926.834" y="209.6094"/><rect fill="#F1F1F1" height="2" style="stroke:#181818;stroke-width:0.5;" width="4" x="926.834" y="213.6094"/><text fill="#000000" font-family="sans-serif" font-size="14" lengthAdjust="spacing" textLength="45.9102" x="706" y="237.1426">Entities</text><text fill="#000000" font-family="sans-serif" font-size="14" lengthAdjust="spacing" textLength="193.7578" x="706" y="254.752">AppUser, Warehouse, Product,</text><text fill="#000000" font-family="sans-serif" font-size="14" lengthAdjust="spacing" textLength="181.3164" x="706" y="272.3613">StockBalance, ProductSerial,</text><text fill="#000000" font-family="sans-serif" font-size="14" lengthAdjust="spacing" textLength="217.834" x="706" y="289.9707">WarrantyCoverage, WarrantyClaim</text></g><!--entity Rules--><g class="entity" data-qualified-name="Domain.Rules" data-source-line="25" id="ent0016"><rect fill="#F1F1F1" height="100.4375" rx="2.5" ry="2.5" style="stroke:#181818;stroke-width:0.5;" width="155.1377" x="1039.5" y="202.6094"/><rect fill="#F1F1F1" height="10" style="stroke:#181818;stroke-width:0.5;" width="15" x="1174.6377" y="207.6094"/><rect fill="#F1F1F1" height="2" style="stroke:#181818;stroke-width:0.5;" width="4" x="1172.6377" y="209.6094"/><rect fill="#F1F1F1" height="2" style="stroke:#181818;stroke-width:0.5;" width="4" x="1172.6377" y="213.6094"/><text fill="#000000" font-family="sans-serif" font-size="14" lengthAdjust="spacing" textLength="96.4893" x="1054.5" y="237.1426">Business Rules</text><text fill="#000000" font-family="sans-serif" font-size="14" lengthAdjust="spacing" textLength="113.6201" x="1054.5" y="254.752">Posting, Approval,</text><text fill="#000000" font-family="sans-serif" font-size="14" lengthAdjust="spacing" textLength="91.0479" x="1054.5" y="272.3613">Stock Locking,</text><text fill="#000000" font-family="sans-serif" font-size="14" lengthAdjust="spacing" textLength="115.1377" x="1054.5" y="289.9707">Warranty Eligibility</text></g><!--entity Repo--><g class="entity" data-qualified-name="Infrastructure.Repo" data-source-line="29" id="ent0018"><rect fill="#F1F1F1" height="47.6094" rx="2.5" ry="2.5" style="stroke:#181818;stroke-width:0.5;" width="117.8135" x="761" y="496.6094"/><rect fill="#F1F1F1" height="10" style="stroke:#181818;stroke-width:0.5;" width="15" x="858.8135" y="501.6094"/><rect fill="#F1F1F1" height="2" style="stroke:#181818;stroke-width:0.5;" width="4" x="856.8135" y="503.6094"/><rect fill="#F1F1F1" height="2" style="stroke:#181818;stroke-width:0.5;" width="4" x="856.8135" y="507.6094"/><text fill="#000000" font-family="sans-serif" font-size="14" lengthAdjust="spacing" textLength="77.8135" x="776" y="531.1426">Repositories</text></g><!--entity Tx--><g class="entity" data-qualified-name="Infrastructure.Tx" data-source-line="30" id="ent0019"><rect fill="#F1F1F1" height="47.6094" rx="2.5" ry="2.5" style="stroke:#181818;stroke-width:0.5;" width="216.251" x="1009" y="496.6094"/><rect fill="#F1F1F1" height="10" style="stroke:#181818;stroke-width:0.5;" width="15" x="1205.251" y="501.6094"/><rect fill="#F1F1F1" height="2" style="stroke:#181818;stroke-width:0.5;" width="4" x="1203.251" y="503.6094"/><rect fill="#F1F1F1" height="2" style="stroke:#181818;stroke-width:0.5;" width="4" x="1203.251" y="507.6094"/><text fill="#000000" font-family="sans-serif" font-size="14" lengthAdjust="spacing" textLength="176.251" x="1024" y="531.1426">Transactions + Row Locking</text></g><!--entity Audit--><g class="entity" data-qualified-name="Infrastructure.Audit" data-source-line="31" id="ent0020"><rect fill="#F1F1F1" height="47.6094" rx="2.5" ry="2.5" style="stroke:#181818;stroke-width:0.5;" width="189.8301" x="1285" y="496.6094"/><rect fill="#F1F1F1" height="10" style="stroke:#181818;stroke-width:0.5;" width="15" x="1454.8301" y="501.6094"/><rect fill="#F1F1F1" height="2" style="stroke:#181818;stroke-width:0.5;" width="4" x="1452.8301" y="503.6094"/><rect fill="#F1F1F1" height="2" style="stroke:#181818;stroke-width:0.5;" width="4" x="1452.8301" y="507.6094"/><text fill="#000000" font-family="sans-serif" font-size="14" lengthAdjust="spacing" textLength="149.8301" x="1300" y="531.1426">AuditLog + StockLedger</text></g><!--entity DB--><g class="entity" data-qualified-name="Infrastructure.DB" data-source-line="32" id="ent0021"><path d="M1535,507.1094 C1535,497.1094 1581.5688,497.1094 1581.5688,497.1094 C1581.5688,497.1094 1628.1377,497.1094 1628.1377,507.1094 L1628.1377,533.7188 C1628.1377,543.7188 1581.5688,543.7188 1581.5688,543.7188 C1581.5688,543.7188 1535,543.7188 1535,533.7188 L1535,507.1094" fill="#F1F1F1" style="stroke:#181818;stroke-width:0.5;"/><path d="M1535,507.1094 C1535,517.1094 1581.5688,517.1094 1581.5688,517.1094 C1581.5688,517.1094 1628.1377,517.1094 1628.1377,507.1094" fill="none" style="stroke:#181818;stroke-width:0.5;"/><text fill="#000000" font-family="sans-serif" font-size="14" lengthAdjust="spacing" textLength="73.1377" x="1545" y="535.6426">SQL Server</text></g><!--link View to VM--><g class="link" data-entity-1="ent0003" data-entity-2="ent0004" data-link-type="dependency" data-source-line="35" id="lnk22"><path d="M136.16,396.6094 C154.36,396.6094 169.14,396.6094 189.63,396.6094" fill="none" id="View-to-VM" style="stroke:#181818;stroke-width:1;"/><polygon fill="#181818" points="195.63,396.6094,186.63,392.6094,190.63,396.6094,186.63,400.6094,195.63,396.6094" style="stroke:#181818;stroke-width:1;"/></g><!--link VM to Auth--><g class="link" data-entity-1="ent0004" data-entity-2="ent0006" data-link-type="dependency" data-source-line="36" id="lnk23"><path d="M403.03,418.7794 C432.57,418.7794 457.69,418.7794 483.41,418.7794" fill="none" id="VM-to-Auth" style="stroke:#181818;stroke-width:1;"/><polygon fill="#181818" points="489.41,418.7794,480.41,414.7794,484.41,418.7794,480.41,422.7794,489.41,418.7794" style="stroke:#181818;stroke-width:1;"/></g><!--link VM to Authorization--><g class="link" data-entity-1="ent0004" data-entity-2="ent0007" data-link-type="dependency" data-source-line="37" id="lnk24"><path d="M403.34,423.9394 C438.01,423.9394 468,423.9394 468,423.9394 C468,423.9394 468,461.5794 468,490.2194" fill="none" id="VM-to-Authorization" style="stroke:#181818;stroke-width:1;"/><polygon fill="#181818" points="468,496.2194,472,487.2194,468,491.2194,464,487.2194,468,496.2194" style="stroke:#181818;stroke-width:1;"/></g><!--link VM to Approval--><g class="link" data-entity-1="ent0004" data-entity-2="ent0008" data-link-type="dependency" data-source-line="38" id="lnk25"><path d="M334,429.4094 C334,487.7794 334,603.6094 334,603.6094 C334,603.6094 407.86,603.6094 469.78,603.6094" fill="none" id="VM-to-Approval" style="stroke:#181818;stroke-width:1;"/><polygon fill="#181818" points="475.78,603.6094,466.78,599.6094,470.78,603.6094,466.78,607.6094,475.78,603.6094" style="stroke:#181818;stroke-width:1;"/></g><!--link VM to Catalog--><g class="link" data-entity-1="ent0004" data-entity-2="ent0009" data-link-type="dependency" data-source-line="39" id="lnk26"><path d="M248,364.0794 C248,288.1394 248,105.6094 248,105.6094 C248,105.6094 382.92,105.6094 471.28,105.6094" fill="none" id="VM-to-Catalog" style="stroke:#181818;stroke-width:1;"/><polygon fill="#181818" points="477.28,105.6094,468.28,101.6094,472.28,105.6094,468.28,109.6094,477.28,105.6094" style="stroke:#181818;stroke-width:1;"/></g><!--link VM to Inventory--><g class="link" data-entity-1="ent0004" data-entity-2="ent0010" data-link-type="dependency" data-source-line="40" id="lnk27"><path d="M300,363.6494 C300,304.9994 300,188.6094 300,188.6094 C300,188.6094 394.14,188.6094 466.89,188.6094" fill="none" id="VM-to-Inventory" style="stroke:#181818;stroke-width:1;"/><polygon fill="#181818" points="472.89,188.6094,463.89,184.6094,467.89,188.6094,463.89,192.6094,472.89,188.6094" style="stroke:#181818;stroke-width:1;"/></g><!--link VM to Sales--><g class="link" data-entity-1="ent0004" data-entity-2="ent0011" data-link-type="dependency" data-source-line="41" id="lnk28"><path d="M352,364.0894 C352,327.0594 352,271.6094 352,271.6094 C352,271.6094 420.99,271.6094 477.96,271.6094" fill="none" id="VM-to-Sales" style="stroke:#181818;stroke-width:1;"/><polygon fill="#181818" points="483.96,271.6094,474.96,267.6094,478.96,271.6094,474.96,275.6094,483.96,271.6094" style="stroke:#181818;stroke-width:1;"/></g><!--link VM to Warranty--><g class="link" data-entity-1="ent0004" data-entity-2="ent0012" data-link-type="dependency" data-source-line="42" id="lnk29"><path d="M403.03,371.3594 C426.61,371.3594 445.19,371.3594 467.23,371.3594" fill="none" id="VM-to-Warranty" style="stroke:#181818;stroke-width:1;"/><polygon fill="#181818" points="473.23,371.3594,464.23,367.3594,468.23,371.3594,464.23,375.3594,473.23,371.3594" style="stroke:#181818;stroke-width:1;"/></g><!--link VM to Report--><g class="link" data-entity-1="ent0004" data-entity-2="ent0013" data-link-type="dependency" data-source-line="43" id="lnk30"><path d="M265,429.3094 C265,505.1594 265,686.6094 265,686.6094 C265,686.6094 381.9,686.6094 465.43,686.6094" fill="none" id="VM-to-Report" style="stroke:#181818;stroke-width:1;"/><polygon fill="#181818" points="471.43,686.6094,462.43,682.6094,466.43,686.6094,462.43,690.6094,471.43,686.6094" style="stroke:#181818;stroke-width:1;"/></g><!--link Auth to EntitiesComp--><g class="link" data-entity-1="ent0006" data-entity-2="ent0015" data-link-type="dependency" data-source-line="45" id="lnk31"><path d="M604.62,429.6094 C656.95,429.6094 726,429.6094 726,429.6094 C726,429.6094 726,361.1894 726,308.8594" fill="none" id="Auth-to-EntitiesComp" style="stroke:#181818;stroke-width:1;"/><polygon fill="#181818" points="726,302.8594,722,311.8594,726,307.8594,730,311.8594,726,302.8594" style="stroke:#181818;stroke-width:1;"/></g><!--link Authorization to Rules--><g class="link" data-entity-1="ent0007" data-entity-2="ent0016" data-link-type="dependency" data-source-line="46" id="lnk32"><path d="M626,496.4694 C626,487.3394 626,479.1094 626,479.1094 C626,479.1094 1117,479.1094 1117,479.1094 C1117,479.1094 1117,375.6094 1117,308.8794" fill="none" id="Authorization-to-Rules" style="stroke:#181818;stroke-width:1;"/><polygon fill="#181818" points="1117,302.8794,1113,311.8794,1117,307.8794,1121,311.8794,1117,302.8794" style="stroke:#181818;stroke-width:1;"/></g><!--link Approval to Rules--><g class="link" data-entity-1="ent0008" data-entity-2="ent0016" data-link-type="dependency" data-source-line="47" id="lnk33"><path d="M618.34,611.6094 C741.04,611.6094 979,611.6094 979,611.6094 C979,611.6094 979,269.2794 979,269.2794 C979,269.2794 1001.83,269.2794 1033.13,269.2794" fill="none" id="Approval-to-Rules" style="stroke:#181818;stroke-width:1;"/><polygon fill="#181818" points="1039.13,269.2794,1030.13,265.2794,1034.13,269.2794,1030.13,273.2794,1039.13,269.2794" style="stroke:#181818;stroke-width:1;"/></g><!--link Catalog to EntitiesComp--><g class="link" data-entity-1="ent0009" data-entity-2="ent0015" data-link-type="dependency" data-source-line="48" id="lnk34"><path d="M616.6,97.6094 C697.48,97.6094 820,97.6094 820,97.6094 C820,97.6094 820,151.0294 820,196.2894" fill="none" id="Catalog-to-EntitiesComp" style="stroke:#181818;stroke-width:1;"/><polygon fill="#181818" points="820,202.2894,824,193.2894,820,197.2894,816,193.2894,820,202.2894" style="stroke:#181818;stroke-width:1;"/></g><!--link Inventory to EntitiesComp--><g class="link" data-entity-1="ent0010" data-entity-2="ent0015" data-link-type="dependency" data-source-line="49" id="lnk35"><path d="M621.24,205.9394 C642.79,205.9394 660.98,205.9394 684.86,205.9394" fill="none" id="Inventory-to-EntitiesComp" style="stroke:#181818;stroke-width:1;"/><polygon fill="#181818" points="690.86,205.9394,681.86,201.9394,685.86,205.9394,681.86,209.9394,690.86,205.9394" style="stroke:#181818;stroke-width:1;"/></g><!--link Sales to EntitiesComp--><g class="link" data-entity-1="ent0011" data-entity-2="ent0015" data-link-type="dependency" data-source-line="50" id="lnk36"><path d="M610.32,263.6094 C634.42,263.6094 656.84,263.6094 684.85,263.6094" fill="none" id="Sales-to-EntitiesComp" style="stroke:#181818;stroke-width:1;"/><polygon fill="#181818" points="690.85,263.6094,681.85,259.6094,685.85,263.6094,681.85,267.6094,690.85,263.6094" style="stroke:#181818;stroke-width:1;"/></g><!--link Warranty to EntitiesComp--><g class="link" data-entity-1="ent0012" data-entity-2="ent0015" data-link-type="dependency" data-source-line="51" id="lnk37"><path d="M616,330.4294 C616,315.4694 616,299.1094 616,299.1094 C616,299.1094 644.32,299.1094 684.8,299.1094" fill="none" id="Warranty-to-EntitiesComp" style="stroke:#181818;stroke-width:1;"/><polygon fill="#181818" points="690.8,299.1094,681.8,295.1094,685.8,299.1094,681.8,303.1094,690.8,299.1094" style="stroke:#181818;stroke-width:1;"/></g><!--link EntitiesComp to Rules--><g class="link" data-entity-1="ent0015" data-entity-2="ent0016" data-link-type="dependency" data-source-line="52" id="lnk38"><path d="M949.4,235.9394 C980.04,235.9394 1005.78,235.9394 1033.29,235.9394" fill="none" id="EntitiesComp-to-Rules" style="stroke:#181818;stroke-width:1;"/><polygon fill="#181818" points="1039.29,235.9394,1030.29,231.9394,1034.29,235.9394,1030.29,239.9394,1039.29,235.9394" style="stroke:#181818;stroke-width:1;"/></g><!--link Auth to Repo--><g class="link" data-entity-1="ent0006" data-entity-2="ent0018" data-link-type="dependency" data-source-line="54" id="lnk39"><path d="M604.64,445.6094 C679.58,445.6094 801,445.6094 801,445.6094 C801,445.6094 801,468.5394 801,490.4694" fill="none" id="Auth-to-Repo" style="stroke:#181818;stroke-width:1;"/><polygon fill="#181818" points="801,496.4694,805,487.4694,801,491.4694,797,487.4694,801,496.4694" style="stroke:#181818;stroke-width:1;"/></g><!--link Authorization to Repo--><g class="link" data-entity-1="ent0007" data-entity-2="ent0018" data-link-type="dependency" data-source-line="55" id="lnk40"><path d="M631.14,535.0094 C673.12,535.0094 716.9,535.0094 754.81,535.0094" fill="none" id="Authorization-to-Repo" style="stroke:#181818;stroke-width:1;"/><polygon fill="#181818" points="760.81,535.0094,751.81,531.0094,755.81,535.0094,751.81,539.0094,760.81,535.0094" style="stroke:#181818;stroke-width:1;"/></g><!--link Approval to Repo--><g class="link" data-entity-1="ent0008" data-entity-2="ent0018" data-link-type="dependency" data-source-line="56" id="lnk41"><path d="M618.09,595.6094 C693.23,595.6094 801,595.6094 801,595.6094 C801,595.6094 801,572.6794 801,550.7494" fill="none" id="Approval-to-Repo" style="stroke:#181818;stroke-width:1;"/><polygon fill="#181818" points="801,544.7494,797,553.7494,801,549.7494,805,553.7494,801,544.7494" style="stroke:#181818;stroke-width:1;"/></g><!--link Catalog to Repo--><g class="link" data-entity-1="ent0009" data-entity-2="ent0018" data-link-type="dependency" data-source-line="57" id="lnk42"><path d="M616.79,113.6094 C647.18,113.6094 676,113.6094 676,113.6094 C676,113.6094 676,506.2094 676,506.2094 C676,506.2094 714.93,506.2094 754.6,506.2094" fill="none" id="Catalog-to-Repo" style="stroke:#181818;stroke-width:1;"/><polygon fill="#181818" points="760.6,506.2094,751.6,502.2094,755.6,506.2094,751.6,510.2094,760.6,506.2094" style="stroke:#181818;stroke-width:1;"/></g><!--link Inventory to Repo--><g class="link" data-entity-1="ent0010" data-entity-2="ent0018" data-link-type="dependency" data-source-line="58" id="lnk43"><path d="M621.13,209.2794 C642.9,209.2794 661,209.2794 661,209.2794 C661,209.2794 661,515.8094 661,515.8094 C661,515.8094 709.59,515.8094 754.79,515.8094" fill="none" id="Inventory-to-Repo" style="stroke:#181818;stroke-width:1;"/><polygon fill="#181818" points="760.79,515.8094,751.79,511.8094,755.79,515.8094,751.79,519.8094,760.79,515.8094" style="stroke:#181818;stroke-width:1;"/></g><!--link Sales to Repo--><g class="link" data-entity-1="ent0011" data-entity-2="ent0018" data-link-type="dependency" data-source-line="59" id="lnk44"><path d="M610.26,279.6094 C629.66,279.6094 646,279.6094 646,279.6094 C646,279.6094 646,525.4094 646,525.4094 C646,525.4094 704.2,525.4094 754.61,525.4094" fill="none" id="Sales-to-Repo" style="stroke:#181818;stroke-width:1;"/><polygon fill="#181818" points="760.61,525.4094,751.61,521.4094,755.61,525.4094,751.61,529.4094,760.61,525.4094" style="stroke:#181818;stroke-width:1;"/></g><!--link Warranty to Repo--><g class="link" data-entity-1="ent0012" data-entity-2="ent0018" data-link-type="dependency" data-source-line="60" id="lnk45"><path d="M620.56,354.6094 C707.35,354.6094 840,354.6094 840,354.6094 C840,354.6094 840,444.4294 840,490.4694" fill="none" id="Warranty-to-Repo" style="stroke:#181818;stroke-width:1;"/><polygon fill="#181818" points="840,496.4694,844,487.4694,840,491.4694,836,487.4694,840,496.4694" style="stroke:#181818;stroke-width:1;"/></g><!--link Report to Repo--><g class="link" data-entity-1="ent0013" data-entity-2="ent0018" data-link-type="dependency" data-source-line="61" id="lnk46"><path d="M622.84,686.6094 C709.65,686.6094 840,686.6094 840,686.6094 C840,686.6094 840,596.7894 840,550.7494" fill="none" id="Report-to-Repo" style="stroke:#181818;stroke-width:1;"/><polygon fill="#181818" points="840,544.7494,836,553.7494,840,549.7494,844,553.7494,840,544.7494" style="stroke:#181818;stroke-width:1;"/></g><!--link Repo to Tx--><g class="link" data-entity-1="ent0018" data-entity-2="ent0019" data-link-type="dependency" data-source-line="62" id="lnk47"><path d="M879.03,520.6094 C916.08,520.6094 958.97,520.6094 1002.8,520.6094" fill="none" id="Repo-to-Tx" style="stroke:#181818;stroke-width:1;"/><polygon fill="#181818" points="1008.8,520.6094,999.8,516.6094,1003.8,520.6094,999.8,524.6094,1008.8,520.6094" style="stroke:#181818;stroke-width:1;"/></g><!--link Tx to Audit--><g class="link" data-entity-1="ent0019" data-entity-2="ent0020" data-link-type="dependency" data-source-line="63" id="lnk48"><path d="M1225.11,520.6094 C1244.95,520.6094 1259.51,520.6094 1278.93,520.6094" fill="none" id="Tx-to-Audit" style="stroke:#181818;stroke-width:1;"/><polygon fill="#181818" points="1284.93,520.6094,1275.93,516.6094,1279.93,520.6094,1275.93,524.6094,1284.93,520.6094" style="stroke:#181818;stroke-width:1;"/></g><!--link Audit to DB--><g class="link" data-entity-1="ent0020" data-entity-2="ent0021" data-link-type="dependency" data-source-line="64" id="lnk49"><path d="M1475.14,520.6094 C1495.93,520.6094 1511.04,520.6094 1528.91,520.6094" fill="none" id="Audit-to-DB" style="stroke:#181818;stroke-width:1;"/><polygon fill="#181818" points="1534.91,520.6094,1525.91,516.6094,1529.91,520.6094,1525.91,524.6094,1534.91,520.6094" style="stroke:#181818;stroke-width:1;"/></g><?plantuml-src RLFBRjim4BphAnQ-na7_e80VAH341jpOSGeqFMmaMYPCam99sN6B_bWkFVHB-YVTfKH9h7kHlJEhdU5ovALN0Xxad_TV6hpz_Px3y-eJV83bThkad_Nd1Qo5FGcRAR7pu0rOMUuz5DAAt4kZCtUGkaABHwWmFs0frlv2Cvb6NIenQ71xBCnPwX9sgDoGKL8BVwa46Elt9ilQKJ1QMU64ziXI8_YH0NpTId5sBvfzVfai5zy07J0MkQKfXAA6cJaUKHSERc2BIXPX1ZpTDoyiivy3cKbLAPaFLIQrt_F9PIx22rn7t5ZvFVJ-sz0HeREgh3cXIffQZFaPUbIcX27VOapVwnCTtDXBqj2XtB969Ln21uIfPxGMjKzVZY0tF8gATirtCUneq6GrStD46RTofxtqKj1swIHFJjWn3nLxKpinXfKrHPtxyOjUUvCVfgXGvprEGX8LiT77p52mI6JSEPifbCVW92hHBLQiFAqTPSIHnLgn_ieuTZ_kLXfLOK4FPdeTk5EobAzIINzfZiapabFUwvr5votPhAreJylRS9AsJJwwzJ2neR4EG_uvNe_c75L3s-QjIKeX_O8k-0Q2iOKeIc7Rh115FPH9V4L7-ls7DkA6-PJTSPhXzlOZfvK-H_uNOZZutoSkWZ5XRHqJrPPzVbgWIKnRT05fwpOE6Ii58BcLHB_f3tkD5WPGpFhLZ3xbLrIJxYkukzGhPbWCj7ltuVh-uph0YMb6Xfu3a7eDKEynb8ctW3GRJEjGKKOsR-qrSXZ2CzJpwLy0?></g></svg>