<?plantuml 1.2026.2?><svg xmlns="http://www.w3.org/2000/svg" xmlns:xlink="http://www.w3.org/1999/xlink" contentStyleType="text/css" data-diagram-type="ACTIVITY" height="1549px" preserveAspectRatio="none" style="width:637px;height:1549px;background:#FFFFFF;" version="1.1" viewBox="0 0 637 1549" width="637px" zoomAndPan="magnify"><title>S&#417; &#273;&#7891; Quy tr&#236;nh t&#7921; &#273;&#7897;ng h&#243;a CI/CD (CI/CD Pipeline Diagram)</title><defs/><g><g class="title" data-source-line="1"><text fill="#000000" font-family="sans-serif" font-size="14" font-weight="bold" lengthAdjust="spacing" textLength="402.7666" x="115.675" y="34.5332">S&#417; &#273;&#7891; Quy tr&#236;nh t&#7921; &#273;&#7897;ng h&#243;a CI/CD (CI/CD Pipeline Diagram)</text></g><ellipse cx="242.1572" cy="58.6094" fill="#222222" rx="10" ry="10" style="stroke:#222222;stroke-width:1;"/><rect fill="#F1F1F1" height="35.0938" rx="12.5" ry="12.5" style="stroke:#181818;stroke-width:0.5;" width="392.7617" x="45.7764" y="88.6094"/><text fill="#000000" font-family="sans-serif" font-size="12" lengthAdjust="spacing" textLength="372.7617" x="55.7764" y="111.0664">Developer th&#7921;c hi&#7879;n git push code m&#7899;i l&#234;n nh&#225;nh ch&#237;nh (main/master)</text><rect fill="#555555" height="6" rx="2.5" ry="2.5" style="stroke:#555555;stroke-width:1;" width="303.873" x="90.2207" y="143.7031"/><rect fill="#F1F1F1" height="35.0938" rx="12.5" ry="12.5" style="stroke:#181818;stroke-width:0.5;" width="236.6445" x="123.835" y="169.7031"/><text fill="#000000" font-family="sans-serif" font-size="12" lengthAdjust="spacing" textLength="216.6445" x="133.835" y="192.1602">GitHub Actions Workflow &#273;&#432;&#7907;c k&#237;ch ho&#7841;t</text><rect fill="#F1F1F1" height="35.0938" rx="12.5" ry="12.5" style="stroke:#181818;stroke-width:0.5;" width="275.873" x="104.2207" y="224.7969"/><text fill="#000000" font-family="sans-serif" font-size="12" lengthAdjust="spacing" textLength="255.873" x="114.2207" y="247.2539">Kh&#7903;i t&#7841;o m&#244;i tr&#432;&#7901;ng &#7843;o (runner: windows-latest)</text><rect fill="#555555" height="6" rx="2.5" ry="2.5" style="stroke:#555555;stroke-width:1;" width="303.873" x="90.2207" y="279.8906"/><rect fill="none" height="370.8555" style="stroke:#000000;stroke-width:1.5;" width="530.0161" x="96.1006" y="295.8906"/><path d="M262.5205,295.8906 L262.5205,306.5 L252.5205,316.5 L96.1006,316.5" fill="none" style="stroke:#000000;stroke-width:1.5;"/><text fill="#000000" font-family="sans-serif" font-size="14" lengthAdjust="spacing" textLength="156.4199" x="99.1006" y="311.4238">Phase 1: Restore &amp; Build</text><rect fill="#F1F1F1" height="35.0938" rx="12.5" ry="12.5" style="stroke:#181818;stroke-width:0.5;" width="143.9199" x="170.1973" y="333.5"/><text fill="#000000" font-family="sans-serif" font-size="12" lengthAdjust="spacing" textLength="123.9199" x="180.1973" y="355.957">Kh&#7903;i t&#7841;o .NET SDK 8.0</text><path d="M371.8838,392.9648 L371.8838,402.1406 L351.8838,406.1406 L371.8838,410.1406 L371.8838,419.3164 A0,0 0 0 0 371.8838,419.3164 L491.1519,419.3164 A0,0 0 0 0 491.1519,419.3164 L491.1519,402.9648 L481.1519,392.9648 L371.8838,392.9648 A0,0 0 0 0 371.8838,392.9648" fill="#FEFFDD" style="stroke:#181818;stroke-width:0.5;"/><path d="M481.1519,392.9648 L481.1519,402.9648 L491.1519,402.9648 L481.1519,392.9648" fill="#FEFFDD" style="stroke:#181818;stroke-width:0.5;"/><text fill="#000000" font-family="sans-serif" font-size="13" lengthAdjust="spacing" textLength="98.2681" x="377.8838" y="411.46">rtk dotnet restore</text><rect fill="#F1F1F1" height="35.0938" rx="12.5" ry="12.5" style="stroke:#181818;stroke-width:0.5;" width="219.4531" x="132.4307" y="388.5938"/><text fill="#000000" font-family="sans-serif" font-size="12" lengthAdjust="spacing" textLength="199.4531" x="142.4307" y="411.0508">Restore c&#225;c g&#243;i NuGet dependencies</text><path d="M371.8252,448.0586 L371.8252,457.2344 L351.8252,461.2344 L371.8252,465.2344 L371.8252,474.4102 A0,0 0 0 0 371.8252,474.4102 L616.1167,474.4102 A0,0 0 0 0 616.1167,474.4102 L616.1167,458.0586 L606.1167,448.0586 L371.8252,448.0586 A0,0 0 0 0 371.8252,448.0586" fill="#FEFFDD" style="stroke:#181818;stroke-width:0.5;"/><path d="M606.1167,448.0586 L606.1167,458.0586 L616.1167,458.0586 L606.1167,448.0586" fill="#FEFFDD" style="stroke:#181818;stroke-width:0.5;"/><text fill="#000000" font-family="sans-serif" font-size="13" lengthAdjust="spacing" textLength="223.2915" x="377.8252" y="466.5537">rtk dotnet build --configuration Release</text><rect fill="#F1F1F1" height="35.0938" rx="12.5" ry="12.5" style="stroke:#181818;stroke-width:0.5;" width="219.3359" x="132.4893" y="443.6875"/><text fill="#000000" font-family="sans-serif" font-size="12" lengthAdjust="spacing" textLength="199.3359" x="142.4893" y="466.1445">Build d&#7921; &#225;n WPF &#7903; c&#7845;u h&#236;nh Release</text><rect fill="#F1F1F1" height="35.0938" rx="12.5" ry="12.5" style="stroke:#181818;stroke-width:0.5;" width="252.1133" x="116.1006" y="547.6992"/><text fill="#000000" font-family="sans-serif" font-size="12" lengthAdjust="spacing" textLength="232.1133" x="126.1006" y="570.1563">Th&#244;ng b&#225;o l&#7895;i Build l&#234;n Slack/Discord/Email</text><ellipse cx="242.1572" cy="621.7461" fill="none" rx="11" ry="11" style="stroke:#222222;stroke-width:1;"/><ellipse cx="242.1572" cy="621.7461" fill="#222222" rx="6" ry="6" style="stroke:#222222;stroke-width:1;"/><polygon fill="#F1F1F1" points="198.1223,498.7813,286.1921,498.7813,298.1921,510.7813,286.1921,522.7813,198.1223,522.7813,186.1223,510.7813,198.1223,498.7813" style="stroke:#181818;stroke-width:0.5;"/><text fill="#000000" font-family="sans-serif" font-size="11" lengthAdjust="spacing" textLength="31.8076" x="246.1572" y="534.2002">Kh&#244;ng</text><text fill="#000000" font-family="sans-serif" font-size="11" lengthAdjust="spacing" textLength="88.0698" x="198.1223" y="515.2822">Build th&#224;nh c&#244;ng?</text><text fill="#000000" font-family="sans-serif" font-size="11" lengthAdjust="spacing" textLength="14.0615" x="298.1921" y="508.3643">C&#243;</text><rect fill="none" height="260.668" style="stroke:#000000;stroke-width:1.5;" width="411.54" x="86.7695" y="676.7461"/><path d="M273.4307,676.7461 L273.4307,687.3555 L263.4307,697.3555 L86.7695,697.3555" fill="none" style="stroke:#000000;stroke-width:1.5;"/><text fill="#000000" font-family="sans-serif" font-size="14" lengthAdjust="spacing" textLength="176.6611" x="89.7695" y="692.2793">Phase 2: Automated Testing</text><path d="M388.5479,718.7266 L388.5479,727.9023 L368.5479,731.9023 L388.5479,735.9023 L388.5479,745.0781 A0,0 0 0 0 388.5479,745.0781 L488.3096,745.0781 A0,0 0 0 0 488.3096,745.0781 L488.3096,728.7266 L478.3096,718.7266 L388.5479,718.7266 A0,0 0 0 0 388.5479,718.7266" fill="#FEFFDD" style="stroke:#181818;stroke-width:0.5;"/><path d="M478.3096,718.7266 L478.3096,728.7266 L488.3096,728.7266 L478.3096,718.7266" fill="#FEFFDD" style="stroke:#181818;stroke-width:0.5;"/><text fill="#000000" font-family="sans-serif" font-size="13" lengthAdjust="spacing" textLength="78.7617" x="394.5479" y="737.2217">rtk dotnet test</text><rect fill="#F1F1F1" height="35.0938" rx="12.5" ry="12.5" style="stroke:#181818;stroke-width:0.5;" width="252.7813" x="115.7666" y="714.3555"/><text fill="#000000" font-family="sans-serif" font-size="12" lengthAdjust="spacing" textLength="232.7813" x="125.7666" y="736.8125">Ch&#7841;y to&#224;n b&#7897; Unit Tests &amp; Integration Tests</text><rect fill="#F1F1F1" height="35.0938" rx="12.5" ry="12.5" style="stroke:#181818;stroke-width:0.5;" width="270.7754" x="106.7695" y="818.3672"/><text fill="#000000" font-family="sans-serif" font-size="12" lengthAdjust="spacing" textLength="250.7754" x="116.7695" y="840.8242">Th&#244;ng b&#225;o l&#7895;i Test th&#7845;t b&#7841;i (Test Failures Alert)</text><ellipse cx="242.1572" cy="892.4141" fill="none" rx="11" ry="11" style="stroke:#222222;stroke-width:1;"/><ellipse cx="242.1572" cy="892.4141" fill="#222222" rx="6" ry="6" style="stroke:#222222;stroke-width:1;"/><polygon fill="#F1F1F1" points="186.5208,769.4492,297.7937,769.4492,309.7937,781.4492,297.7937,793.4492,186.5208,793.4492,174.5208,781.4492,186.5208,769.4492" style="stroke:#181818;stroke-width:0.5;"/><text fill="#000000" font-family="sans-serif" font-size="11" lengthAdjust="spacing" textLength="31.8076" x="246.1572" y="804.8682">Kh&#244;ng</text><text fill="#000000" font-family="sans-serif" font-size="11" lengthAdjust="spacing" textLength="111.2729" x="186.5208" y="785.9502">T&#7845;t c&#7843; test case Pass?</text><text fill="#000000" font-family="sans-serif" font-size="11" lengthAdjust="spacing" textLength="14.0615" x="309.7937" y="779.0322">C&#243;</text><rect fill="none" height="139.7969" style="stroke:#000000;stroke-width:1.5;" width="376.8906" x="53.7119" y="947.4141"/><path d="M307.2832,947.4141 L307.2832,958.0234 L297.2832,968.0234 L53.7119,968.0234" fill="none" style="stroke:#000000;stroke-width:1.5;"/><text fill="#000000" font-family="sans-serif" font-size="14" lengthAdjust="spacing" textLength="243.5713" x="56.7119" y="962.9473">Phase 3: Code Quality &amp; Security Scan</text><rect fill="#F1F1F1" height="35.0938" rx="12.5" ry="12.5" style="stroke:#181818;stroke-width:0.5;" width="285.4004" x="99.457" y="985.0234"/><text fill="#000000" font-family="sans-serif" font-size="12" lengthAdjust="spacing" textLength="265.4004" x="109.457" y="1007.4805">Ch&#7841;y SonarCloud ph&#226;n t&#237;ch ch&#7845;t l&#432;&#7907;ng m&#227; ngu&#7891;n</text><rect fill="#F1F1F1" height="35.0938" rx="12.5" ry="12.5" style="stroke:#181818;stroke-width:0.5;" width="356.8906" x="63.7119" y="1040.1172"/><text fill="#000000" font-family="sans-serif" font-size="12" lengthAdjust="spacing" textLength="336.8906" x="73.7119" y="1062.5742">Qu&#233;t th&#432; vi&#7879;n dependencies t&#236;m l&#7895; h&#7893;ng b&#7843;o m&#7853;t (NuGet Scan)</text><rect fill="none" height="139.7969" style="stroke:#000000;stroke-width:1.5;" width="462.3145" x="11" y="1097.2109"/><path d="M246.709,1097.2109 L246.709,1107.8203 L236.709,1117.8203 L11,1117.8203" fill="none" style="stroke:#000000;stroke-width:1.5;"/><text fill="#000000" font-family="sans-serif" font-size="14" lengthAdjust="spacing" textLength="225.709" x="14" y="1112.7441">Phase 4: Packaging &amp; Code Signing</text><rect fill="#F1F1F1" height="35.0938" rx="12.5" ry="12.5" style="stroke:#181818;stroke-width:0.5;" width="330.1543" x="77.0801" y="1134.8203"/><text fill="#000000" font-family="sans-serif" font-size="12" lengthAdjust="spacing" textLength="310.1543" x="87.0801" y="1157.2773">T&#7841;o g&#243;i c&#224;i &#273;&#7863;t Windows App Package (MSIX / Setup.exe)</text><rect fill="#F1F1F1" height="35.0938" rx="12.5" ry="12.5" style="stroke:#181818;stroke-width:0.5;" width="442.3145" x="21" y="1189.9141"/><text fill="#000000" font-family="sans-serif" font-size="12" lengthAdjust="spacing" textLength="422.3145" x="31" y="1212.3711">K&#253; s&#7889; &#7913;ng d&#7909;ng (Code Signing) b&#7857;ng ch&#7913;ng ch&#7881; doanh nghi&#7879;p (PFX Certificate)</text><rect fill="none" height="194.8906" style="stroke:#000000;stroke-width:1.5;" width="363.4551" x="60.4297" y="1247.0078"/><path d="M272.7666,1247.0078 L272.7666,1257.6172 L262.7666,1267.6172 L60.4297,1267.6172" fill="none" style="stroke:#000000;stroke-width:1.5;"/><text fill="#000000" font-family="sans-serif" font-size="14" lengthAdjust="spacing" textLength="202.3369" x="63.4297" y="1262.541">Phase 5: Release &amp; Deployment</text><rect fill="#F1F1F1" height="35.0938" rx="12.5" ry="12.5" style="stroke:#181818;stroke-width:0.5;" width="262.1211" x="111.0967" y="1284.6172"/><text fill="#000000" font-family="sans-serif" font-size="12" lengthAdjust="spacing" textLength="242.1211" x="121.0967" y="1307.0742">Upload b&#7897; c&#224;i l&#234;n GitHub Releases / AWS S3</text><rect fill="#F1F1F1" height="35.0938" rx="12.5" ry="12.5" style="stroke:#181818;stroke-width:0.5;" width="266.1113" x="109.1016" y="1339.7109"/><text fill="#000000" font-family="sans-serif" font-size="12" lengthAdjust="spacing" textLength="246.1113" x="119.1016" y="1362.168">C&#7853;p nh&#7853;t file ClickOnce manifest (.application)</text><rect fill="#F1F1F1" height="35.0938" rx="12.5" ry="12.5" style="stroke:#181818;stroke-width:0.5;" width="343.4551" x="70.4297" y="1394.8047"/><text fill="#000000" font-family="sans-serif" font-size="12" lengthAdjust="spacing" textLength="323.4551" x="80.4297" y="1417.2617">G&#7917;i th&#244;ng b&#225;o c&#243; phi&#234;n b&#7843;n m&#7899;i l&#234;n k&#234;nh th&#244;ng b&#225;o k&#7929; thu&#7853;t</text><rect fill="#F1F1F1" height="35.0938" rx="12.5" ry="12.5" style="stroke:#181818;stroke-width:0.5;" width="212.7734" x="135.7705" y="1461.8984"/><text fill="#000000" font-family="sans-serif" font-size="12" lengthAdjust="spacing" textLength="192.7734" x="145.7705" y="1484.3555">K&#7871;t th&#250;c quy tr&#236;nh CI/CD th&#224;nh c&#244;ng</text><ellipse cx="242.1572" cy="1527.9922" fill="none" rx="11" ry="11" style="stroke:#222222;stroke-width:1;"/><ellipse cx="242.1572" cy="1527.9922" fill="#222222" rx="6" ry="6" style="stroke:#222222;stroke-width:1;"/><line style="stroke:#181818;stroke-width:1;" x1="242.1572" x2="242.1572" y1="68.6094" y2="88.6094"/><polygon fill="#181818" points="238.1572,78.6094,242.1572,88.6094,246.1572,78.6094,242.1572,82.6094" style="stroke:#181818;stroke-width:1;"/><line style="stroke:#181818;stroke-width:1;" x1="242.1572" x2="242.1572" y1="204.7969" y2="224.7969"/><polygon fill="#181818" points="238.1572,214.7969,242.1572,224.7969,246.1572,214.7969,242.1572,218.7969" style="stroke:#181818;stroke-width:1;"/><line style="stroke:#181818;stroke-width:1;" x1="242.1572" x2="242.1572" y1="149.7031" y2="169.7031"/><polygon fill="#181818" points="238.1572,159.7031,242.1572,169.7031,246.1572,159.7031,242.1572,163.7031" style="stroke:#181818;stroke-width:1;"/><line style="stroke:#181818;stroke-width:1;" x1="242.1572" x2="242.1572" y1="259.8906" y2="279.8906"/><polygon fill="#181818" points="238.1572,269.8906,242.1572,279.8906,246.1572,269.8906,242.1572,273.8906" style="stroke:#181818;stroke-width:1;"/><line style="stroke:#181818;stroke-width:1;" x1="242.1572" x2="242.1572" y1="123.7031" y2="143.7031"/><polygon fill="#181818" points="238.1572,133.7031,242.1572,143.7031,246.1572,133.7031,242.1572,137.7031" style="stroke:#181818;stroke-width:1;"/><line style="stroke:#181818;stroke-width:1;" x1="242.1572" x2="242.1572" y1="368.5938" y2="388.5938"/><polygon fill="#181818" points="238.1572,378.5938,242.1572,388.5938,246.1572,378.5938,242.1572,382.5938" style="stroke:#181818;stroke-width:1;"/><line style="stroke:#181818;stroke-width:1;" x1="242.1572" x2="242.1572" y1="423.6875" y2="443.6875"/><polygon fill="#181818" points="238.1572,433.6875,242.1572,443.6875,246.1572,433.6875,242.1572,437.6875" style="stroke:#181818;stroke-width:1;"/><line style="stroke:#181818;stroke-width:1;" x1="242.1572" x2="242.1572" y1="582.793" y2="610.7461"/><polygon fill="#181818" points="238.1572,600.7461,242.1572,610.7461,246.1572,600.7461,242.1572,604.7461" style="stroke:#181818;stroke-width:1;"/><line style="stroke:#181818;stroke-width:1;" x1="242.1572" x2="242.1572" y1="522.7813" y2="547.6992"/><polygon fill="#181818" points="238.1572,537.6992,242.1572,547.6992,246.1572,537.6992,242.1572,541.6992" style="stroke:#181818;stroke-width:1;"/><line style="stroke:#181818;stroke-width:1;" x1="298.1921" x2="378.2139" y1="510.7813" y2="510.7813"/><polygon fill="#181818" points="374.2139,580.7461,378.2139,590.7461,382.2139,580.7461,378.2139,584.7461" style="stroke:#181818;stroke-width:1;"/><line style="stroke:#181818;stroke-width:1;" x1="378.2139" x2="378.2139" y1="510.7813" y2="654.7461"/><line style="stroke:#181818;stroke-width:1;" x1="378.2139" x2="242.1572" y1="654.7461" y2="654.7461"/><line style="stroke:#181818;stroke-width:1;" x1="242.1572" x2="242.1572" y1="654.7461" y2="714.3555"/><polygon fill="#181818" points="238.1572,704.3555,242.1572,714.3555,246.1572,704.3555,242.1572,708.3555" style="stroke:#181818;stroke-width:1;"/><line style="stroke:#181818;stroke-width:1;" x1="242.1572" x2="242.1572" y1="478.7813" y2="498.7813"/><polygon fill="#181818" points="238.1572,488.7813,242.1572,498.7813,246.1572,488.7813,242.1572,492.7813" style="stroke:#181818;stroke-width:1;"/><line style="stroke:#181818;stroke-width:1;" x1="242.1572" x2="242.1572" y1="285.8906" y2="333.5"/><polygon fill="#181818" points="238.1572,323.5,242.1572,333.5,246.1572,323.5,242.1572,327.5" style="stroke:#181818;stroke-width:1;"/><line style="stroke:#181818;stroke-width:1;" x1="242.1572" x2="242.1572" y1="853.4609" y2="881.4141"/><polygon fill="#181818" points="238.1572,871.4141,242.1572,881.4141,246.1572,871.4141,242.1572,875.4141" style="stroke:#181818;stroke-width:1;"/><line style="stroke:#181818;stroke-width:1;" x1="242.1572" x2="242.1572" y1="793.4492" y2="818.3672"/><polygon fill="#181818" points="238.1572,808.3672,242.1572,818.3672,246.1572,808.3672,242.1572,812.3672" style="stroke:#181818;stroke-width:1;"/><line style="stroke:#181818;stroke-width:1;" x1="309.7937" x2="387.5449" y1="781.4492" y2="781.4492"/><polygon fill="#181818" points="383.5449,851.4141,387.5449,861.4141,391.5449,851.4141,387.5449,855.4141" style="stroke:#181818;stroke-width:1;"/><line style="stroke:#181818;stroke-width:1;" x1="387.5449" x2="387.5449" y1="781.4492" y2="925.4141"/><line style="stroke:#181818;stroke-width:1;" x1="387.5449" x2="242.1572" y1="925.4141" y2="925.4141"/><line style="stroke:#181818;stroke-width:1;" x1="242.1572" x2="242.1572" y1="925.4141" y2="985.0234"/><polygon fill="#181818" points="238.1572,975.0234,242.1572,985.0234,246.1572,975.0234,242.1572,979.0234" style="stroke:#181818;stroke-width:1;"/><line style="stroke:#181818;stroke-width:1;" x1="242.1572" x2="242.1572" y1="749.4492" y2="769.4492"/><polygon fill="#181818" points="238.1572,759.4492,242.1572,769.4492,246.1572,759.4492,242.1572,763.4492" style="stroke:#181818;stroke-width:1;"/><line style="stroke:#181818;stroke-width:1;" x1="242.1572" x2="242.1572" y1="1020.1172" y2="1040.1172"/><polygon fill="#181818" points="238.1572,1030.1172,242.1572,1040.1172,246.1572,1030.1172,242.1572,1034.1172" style="stroke:#181818;stroke-width:1;"/><line style="stroke:#181818;stroke-width:1;" x1="242.1572" x2="242.1572" y1="1169.9141" y2="1189.9141"/><polygon fill="#181818" points="238.1572,1179.9141,242.1572,1189.9141,246.1572,1179.9141,242.1572,1183.9141" style="stroke:#181818;stroke-width:1;"/><line style="stroke:#181818;stroke-width:1;" x1="242.1572" x2="242.1572" y1="1075.2109" y2="1134.8203"/><polygon fill="#181818" points="238.1572,1124.8203,242.1572,1134.8203,246.1572,1124.8203,242.1572,1128.8203" style="stroke:#181818;stroke-width:1;"/><line style="stroke:#181818;stroke-width:1;" x1="242.1572" x2="242.1572" y1="1319.7109" y2="1339.7109"/><polygon fill="#181818" points="238.1572,1329.7109,242.1572,1339.7109,246.1572,1329.7109,242.1572,1333.7109" style="stroke:#181818;stroke-width:1;"/><line style="stroke:#181818;stroke-width:1;" x1="242.1572" x2="242.1572" y1="1374.8047" y2="1394.8047"/><polygon fill="#181818" points="238.1572,1384.8047,242.1572,1394.8047,246.1572,1384.8047,242.1572,1388.8047" style="stroke:#181818;stroke-width:1;"/><line style="stroke:#181818;stroke-width:1;" x1="242.1572" x2="242.1572" y1="1225.0078" y2="1284.6172"/><polygon fill="#181818" points="238.1572,1274.6172,242.1572,1284.6172,246.1572,1274.6172,242.1572,1278.6172" style="stroke:#181818;stroke-width:1;"/><line style="stroke:#181818;stroke-width:1;" x1="242.1572" x2="242.1572" y1="1429.8984" y2="1461.8984"/><polygon fill="#181818" points="238.1572,1451.8984,242.1572,1461.8984,246.1572,1451.8984,242.1572,1455.8984" style="stroke:#181818;stroke-width:1;"/><line style="stroke:#181818;stroke-width:1;" x1="242.1572" x2="242.1572" y1="1496.9922" y2="1516.9922"/><polygon fill="#181818" points="238.1572,1506.9922,242.1572,1516.9922,246.1572,1506.9922,242.1572,1510.9922" style="stroke:#181818;stroke-width:1;"/><?plantuml-src bLL1Ynn55BxFhtZa83s7tL6Z8Bq76Nkowx8OPzCJDjUQwfhkOgghskxgh8ju5ez1H4J4Z4iEaImaR42SGJoKxF_eV-9NrHEpmHZqCjNrUFNU-xxtlJTMMYKelLhHdm-wpJTqt9wHhTqJNP3jDi-2zNkTK-4k6IM7esH2KNzCPIMKr88cakKrAuU3GMDPRGVnHDmNobIY9biW1gT2TfklDENIKjKs1N6J2IgxpG-IbFj5aoxS2WbvuIvmH2MJUbIonefwk3TOc7ev88eFfFsudTEOMsbqGoSmBvGvHOLNJxlDEQUbk-055QPRh-oUVt64x3z9u5Yl39NkEJvhx_iZy7JhSqDHtMejwfXEfSxCQREZc1MDHLAXCmg91nKWIP-IRamBrWXw9wOxS3AreBVeerQgx0PzyOzqkxTlpIYT7D47ks-7ObwyuMx5ANUNacwt1y9I9Yea4vfBqNX7RQoWMkQ5ZQcsIygCrN2h--S-KiX9cUyEQAEJwJuXCV5k_QX5dtphxWWbKEiRuir3a9qTRlH2vctD0iJjEpoJ2uhwHBPm3trpt7ETVpZ4LMYAZWf_7S8H1St2XUOEk5Mt-KxsjFIzJHNZoz54DjpKsUWMUglsmZFWgV0X53YD4dVfWu49kHXy-HhMturft5fJea4PpK26rFcMzwG0ur2jGPqqXrpfheRIl5E35XrgA_8jlc1x0ok--rlmCz1fFQddmKhSLp5bJVDVEV2v_03uC7DKA17Jc_R1G8jsqbY9sclj_vDnCwR4Zz1novIqPm2P2jxM_ZFbJB_AIseqgnDbseogmlsioOOvuNrbAWmFAY_TEUcynGxGGQ_7hNliwxzwIlVxyRskL0HvKWQW1DL_wv67YIgxzOMbg9UshmNuNeVWlHXSyYNBqKQK7z2aCjSlkpeBOnG6XRk7qY-YzQ-MJlf9fN5LRIE0i4_Imtiq0WcshNR5vsBOZx_xdPfkym3JyHXPC32FS4JNSmrzsSzW1Hl1oPzVGmqCYjTvs5iLHTFzUvIWMN8XEGJuBvZUZr_C3n1DHANCMIcqtUAvYplBUdq6G64wjajj-wu1YF59IkdD0201cHMMO-1q8R6d4oNvybFDiJsPbWilfsYNLPNoTQ6K7lX1jxcGVcx_LYHtbsY-z1bzd_JrvRl4J_6AzxBR_0P3w_C6gF5Hj_x3Yy6jENtsyX-Y_oEulY3s1bx9Vm40?></g></svg>