<svg xmlns="http://www.w3.org/2000/svg" xmlns:xlink="http://www.w3.org/1999/xlink" contentStyleType="text/css" data-diagram-type="DESCRIPTION" height="279px" preserveAspectRatio="none" style="width:761px;height:279px;background:#FFFFFF;" version="1.1" viewBox="0 0 761 279" width="761px" zoomAndPan="magnify"><?plantuml 1.2026.6?><defs/><g><g class="title" data-source-line="1"><text fill="#000000" font-family="sans-serif" font-size="14" font-weight="700" lengthAdjust="spacing" textLength="170.3789" x="291.8105" y="24.5332">Real deployment diagram</text></g><!--cluster User_PC_Windows--><g class="cluster" data-qualified-name="User_PC_Windows" data-source-line="2" id="ent0001"><polygon fill="none" points="16,54.6094,26,44.6094,324,44.6094,324,241.1094,314,251.1094,16,251.1094,16,54.6094" style="stroke:#181818;stroke-width:1;stroke-linejoin:miter;stroke-miterlimit:10;"/><line style="stroke:#181818;stroke-width:1;" x1="314" x2="324" y1="54.6094" y2="44.6094"/><line style="stroke:#181818;stroke-width:1;" x1="16" x2="314" y1="54.6094" y2="54.6094"/><line style="stroke:#181818;stroke-width:1;" x1="314" x2="314" y1="54.6094" y2="251.1094"/><text fill="#000000" font-family="sans-serif" font-size="14" font-weight="700" lengthAdjust="spacing" textLength="127.5859" x="102.207" y="72.1426">User_PC_Windows</text></g><!--cluster SQL_Server_Node--><g class="cluster" data-qualified-name="SQL_Server_Node" data-source-line="7" id="ent0005"><polygon fill="none" points="526,160.1094,536,150.1094,736,150.1094,736,244.1094,726,254.1094,526,254.1094,526,160.1094" style="stroke:#181818;stroke-width:1;stroke-linejoin:miter;stroke-miterlimit:10;"/><line style="stroke:#181818;stroke-width:1;" x1="726" x2="736" y1="160.1094" y2="150.1094"/><line style="stroke:#181818;stroke-width:1;" x1="526" x2="726" y1="160.1094" y2="160.1094"/><line style="stroke:#181818;stroke-width:1;" x1="726" x2="726" y1="160.1094" y2="254.1094"/><text fill="#000000" font-family="sans-serif" font-size="14" font-weight="700" lengthAdjust="spacing" textLength="122.9443" x="565.5278" y="177.6426">SQL_Server_Node</text></g><!--entity Exe--><g class="entity" data-qualified-name="User_PC_Windows.Exe" data-source-line="3" id="ent0002"><rect fill="#F1F1F1" height="40.6094" rx="2.5" ry="2.5" style="stroke:#181818;stroke-width:0.5;" width="115.5928" x="192" y="85.6094"/><polygon fill="#F1F1F1" points="290.5928,90.6094,290.5928,104.6094,302.5928,104.6094,302.5928,96.6094,296.5928,90.6094,290.5928,90.6094" style="stroke:#181818;stroke-width:0.5;stroke-linejoin:miter;stroke-miterlimit:10;"/><line style="stroke:#181818;stroke-width:0.5;" x1="296.5928" x2="296.5928" y1="90.6094" y2="96.6094"/><line style="stroke:#181818;stroke-width:0.5;" x1="302.5928" x2="296.5928" y1="96.6094" y2="96.6094"/><text fill="#000000" font-family="sans-serif" font-size="14" lengthAdjust="spacing" textLength="85.5928" x="202" y="113.1426">WarePro_exe</text></g><!--entity Config--><g class="entity" data-qualified-name="User_PC_Windows.Config" data-source-line="4" id="ent0003"><rect fill="#F1F1F1" height="40.6094" rx="2.5" ry="2.5" style="stroke:#181818;stroke-width:0.5;" width="135.0752" x="32.5" y="194.1094"/><polygon fill="#F1F1F1" points="150.5752,199.1094,150.5752,213.1094,162.5752,213.1094,162.5752,205.1094,156.5752,199.1094,150.5752,199.1094" style="stroke:#181818;stroke-width:0.5;stroke-linejoin:miter;stroke-miterlimit:10;"/><line style="stroke:#181818;stroke-width:0.5;" x1="156.5752" x2="156.5752" y1="199.1094" y2="205.1094"/><line style="stroke:#181818;stroke-width:0.5;" x1="162.5752" x2="156.5752" y1="205.1094" y2="205.1094"/><text fill="#000000" font-family="sans-serif" font-size="14" lengthAdjust="spacing" textLength="105.0752" x="42.5" y="221.6426">appsettings_json</text></g><!--entity Dlls--><g class="entity" data-qualified-name="User_PC_Windows.Dlls" data-source-line="5" id="ent0004"><rect fill="#F1F1F1" height="40.6094" rx="2.5" ry="2.5" style="stroke:#181818;stroke-width:0.5;" width="105.4756" x="202.5" y="194.1094"/><polygon fill="#F1F1F1" points="290.9756,199.1094,290.9756,213.1094,302.9756,213.1094,302.9756,205.1094,296.9756,199.1094,290.9756,199.1094" style="stroke:#181818;stroke-width:0.5;stroke-linejoin:miter;stroke-miterlimit:10;"/><line style="stroke:#181818;stroke-width:0.5;" x1="296.9756" x2="296.9756" y1="199.1094" y2="205.1094"/><line style="stroke:#181818;stroke-width:0.5;" x1="302.9756" x2="296.9756" y1="205.1094" y2="205.1094"/><text fill="#000000" font-family="sans-serif" font-size="14" lengthAdjust="spacing" textLength="75.4756" x="212.5" y="221.6426">runtime_dlls</text></g><!--entity Db--><g class="entity" data-qualified-name="SQL_Server_Node.Db" data-source-line="8" id="ent0006"><path d="M542.5,201.1094 C542.5,191.1094 631.0996,191.1094 631.0996,191.1094 C631.0996,191.1094 719.6992,191.1094 719.6992,201.1094 L719.6992,227.7188 C719.6992,237.7188 631.0996,237.7188 631.0996,237.7188 C631.0996,237.7188 542.5,237.7188 542.5,227.7188 L542.5,201.1094" fill="#F1F1F1" style="stroke:#181818;stroke-width:0.5;"/><path d="M542.5,201.1094 C542.5,211.1094 631.0996,211.1094 631.0996,211.1094 C631.0996,211.1094 719.6992,211.1094 719.6992,201.1094" fill="none" style="stroke:#181818;stroke-width:0.5;"/><text fill="#000000" font-family="sans-serif" font-size="14" lengthAdjust="spacing" textLength="157.1992" x="552.5" y="229.6426">ProductManagement_DB</text></g><!--entity Files--><g class="entity" data-qualified-name="Files" data-source-line="10" id="ent0007"><path d="M345,186.6094 L386,186.6094 A3.75,3.75 0 0 1 388.5,189.1094 L395.5,207.6094 L505.3926,207.6094 A2.5,2.5 0 0 1 507.8926,210.1094 L507.8926,239.7188 A2.5,2.5 0 0 1 505.3926,242.2188 L345,242.2188 A2.5,2.5 0 0 1 342.5,239.7188 L342.5,189.1094 A2.5,2.5 0 0 1 345,186.6094" fill="#F1F1F1" style="stroke:#181818;stroke-width:0.5;"/><line style="stroke:#181818;stroke-width:0.5;" x1="342.5" x2="395.5" y1="207.6094" y2="207.6094"/><text fill="#000000" font-family="sans-serif" font-size="14" lengthAdjust="spacing" textLength="135.3926" x="352.5" y="229.1426">Import_Export_Folder</text></g><!--link Exe to Config--><g class="link" data-entity-1="ent0002" data-entity-2="ent0003" data-link-type="dependency" data-source-line="11" id="lnk8"><path d="M210.39,126.7594 C201.82,131.4694 192.95,136.7094 185,142.1094 C161.87,157.8194 141.3684,175.3046 124.7384,190.4346" fill="none" id="Exe-to-Config" style="stroke:#181818;stroke-width:1;"/><polygon fill="#181818" points="121.04,193.7994,130.3889,190.7014,124.7384,190.4346,125.0053,184.784,121.04,193.7994" style="stroke:#181818;stroke-width:1;stroke-linejoin:miter;stroke-miterlimit:10;"/></g><!--link Exe to Dlls--><g class="link" data-entity-1="ent0002" data-entity-2="ent0004" data-link-type="dependency" data-source-line="12" id="lnk9"><path d="M250.92,126.6394 C251.81,145.7394 252.9356,169.6649 253.8356,188.8449" fill="none" id="Exe-to-Dlls" style="stroke:#181818;stroke-width:1;"/><polygon fill="#181818" points="254.07,193.8394,257.6438,184.6618,253.8356,188.8449,249.6525,185.0368,254.07,193.8394" style="stroke:#181818;stroke-width:1;stroke-linejoin:miter;stroke-miterlimit:10;"/></g><!--link Exe to Db--><g class="link" data-entity-1="ent0002" data-entity-2="ent0006" data-link-type="dependency" data-source-line="13" id="lnk10"><path d="M308.22,106.7794 C365.2,108.2194 453.61,115.2394 525,142.1094 C554.92,153.3694 580.8276,171.451 601.1676,187.851" fill="none" id="Exe-to-Db" style="stroke:#181818;stroke-width:1;"/><polygon fill="#181818" points="605.06,190.9894,600.5645,182.2264,601.1676,187.851,595.543,188.4542,605.06,190.9894" style="stroke:#181818;stroke-width:1;stroke-linejoin:miter;stroke-miterlimit:10;"/></g><!--link Exe to Files--><g class="link" data-entity-1="ent0002" data-entity-2="ent0007" data-link-type="dependency" data-source-line="14" id="lnk11"><path d="M294.87,126.7894 C304.64,131.4994 314.8,136.7294 324,142.1094 C346.81,155.4394 367.0038,176.2468 386.0038,190.3368" fill="none" id="Exe-to-Files" style="stroke:#181818;stroke-width:1;"/><polygon fill="#181818" points="390.02,193.3151,385.1735,184.7412,386.0038,190.3368,380.4082,191.1671,390.02,193.3151" style="stroke:#181818;stroke-width:1;stroke-linejoin:miter;stroke-miterlimit:10;"/></g><?plantuml-src JOvDQiD038NtFeKka2jqaJyef2LjA5aESkRPJ1dF64bfNKhkdXc7XAoa9ptfVHOiWZx1aJp6cFy692CVk1SUcfGzw4iXRhzonv1y_bNwRuXOB7HyCZgoO2_POGAnqcR2yvR7KM4MKg_kMtEgbbLENUYVNN9E5WOu7wDMnxhKvd8BFtpit07oKn3UgwxXderRLb09zkUJlN7Y7XNShPVpWxQSTpbw2BqEOnPpcsakszkmUBOXGfl2Iul5ontgBcU2XsWVxNnq1G00?></g></svg>