<?plantuml 1.2026.2?><svg xmlns="http://www.w3.org/2000/svg" xmlns:xlink="http://www.w3.org/1999/xlink" contentStyleType="text/css" data-diagram-type="DESCRIPTION" height="513px" preserveAspectRatio="none" style="width:1311px;height:513px;background:#FFFFFF;" version="1.1" viewBox="0 0 1311 513" width="1311px" zoomAndPan="magnify"><title>S&#417; &#273;&#7891; Lu&#7891;ng D&#7919; li&#7879;u DFD M&#7913;c 0 (Context Diagram)</title><defs/><g><g class="title" data-source-line="1"><text fill="#000000" font-family="sans-serif" font-size="14" font-weight="bold" lengthAdjust="spacing" textLength="342.125" x="477.6479" y="24.5332">S&#417; &#273;&#7891; Lu&#7891;ng D&#7919; li&#7879;u DFD M&#7913;c 0 (Context Diagram)</text></g><!--entity Customer--><g class="entity" data-qualified-name="Customer" data-source-line="7" id="ent0002"><ellipse cx="43.3652" cy="201.5394" fill="#F1F1F1" rx="8" ry="8" style="stroke:#181818;stroke-width:0.5;"/><path d="M43.3652,209.5394 L43.3652,236.5394 M30.3652,217.5394 L56.3652,217.5394 M43.3652,236.5394 L30.3652,251.5394 M43.3652,236.5394 L56.3652,251.5394" fill="none" style="stroke:#181818;stroke-width:0.5;"/><text fill="#000000" font-family="sans-serif" font-size="14" lengthAdjust="spacing" textLength="74.7305" x="6" y="267.5726">Kh&#225;ch h&#224;ng</text></g><!--entity Supplier--><g class="entity" data-qualified-name="Supplier" data-source-line="8" id="ent0003"><ellipse cx="1207.1963" cy="62.5394" fill="#F1F1F1" rx="8" ry="8" style="stroke:#181818;stroke-width:0.5;"/><path d="M1207.1963,70.5394 L1207.1963,97.5394 M1194.1963,78.5394 L1220.1963,78.5394 M1207.1963,97.5394 L1194.1963,112.5394 M1207.1963,97.5394 L1220.1963,112.5394" fill="none" style="stroke:#181818;stroke-width:0.5;"/><text fill="#000000" font-family="sans-serif" font-size="14" lengthAdjust="spacing" textLength="86.3926" x="1164" y="128.5726">Nh&#224; cung c&#7845;p</text></g><!--entity Manufacturer--><g class="entity" data-qualified-name="Manufacturer" data-source-line="9" id="ent0004"><ellipse cx="1207.1411" cy="192.5394" fill="#F1F1F1" rx="8" ry="8" style="stroke:#181818;stroke-width:0.5;"/><path d="M1207.1411,200.5394 L1207.1411,227.5394 M1194.1411,208.5394 L1220.1411,208.5394 M1207.1411,227.5394 L1194.1411,242.5394 M1207.1411,227.5394 L1220.1411,242.5394" fill="none" style="stroke:#181818;stroke-width:0.5;"/><text fill="#000000" font-family="sans-serif" font-size="14" lengthAdjust="spacing" textLength="90.2822" x="1162" y="258.5726">H&#227;ng s&#7843;n xu&#7845;t</text></g><!--entity User--><g class="entity" data-qualified-name="User" data-source-line="10" id="ent0005"><ellipse cx="1207.2104" cy="374.5394" fill="#F1F1F1" rx="8" ry="8" style="stroke:#181818;stroke-width:0.5;"/><path d="M1207.2104,382.5394 L1207.2104,409.5394 M1194.2104,390.5394 L1220.2104,390.5394 M1207.2104,409.5394 L1194.2104,424.5394 M1207.2104,409.5394 L1220.2104,424.5394" fill="none" style="stroke:#181818;stroke-width:0.5;"/><text fill="#000000" font-family="sans-serif" font-size="14" lengthAdjust="spacing" textLength="194.4209" x="1110" y="440.5726">Ng&#432;&#7901;i d&#249;ng (Admin/Nh&#226;n vi&#234;n)</text></g><!--entity System--><g class="entity" data-qualified-name="System" data-source-line="12" id="ent0006"><rect fill="#ADD8E6" height="37.6094" rx="2.5" ry="2.5" style="stroke:#181818;stroke-width:0.5;" width="379.543" x="366" y="213.0394"/><text fill="#000000" font-family="sans-serif" font-size="14" lengthAdjust="spacing" textLength="359.543" x="376" y="237.5726">H&#7879; th&#7889;ng Qu&#7843;n l&#253; H&#224;ng h&#243;a &amp; B&#7843;o h&#224;nh (WareHousePro)</text></g><!--link Customer to System--><g class="link" data-entity-1="ent0002" data-entity-2="ent0006" data-link-type="dependency" data-source-line="15" id="lnk7"><path d="M81.21,232.0394 C140.48,232.0394 255.2,232.0394 359.95,232.0394" fill="none" id="Customer-to-System" style="stroke:#181818;stroke-width:1;"/><polygon fill="#181818" points="365.95,232.0394,356.95,228.0394,360.95,232.0394,356.95,236.0394,365.95,232.0394" style="stroke:#181818;stroke-width:1;"/><text fill="#000000" font-family="sans-serif" font-size="13" lengthAdjust="spacing" textLength="156.8062" x="145.1741" y="212.5345">(1) Y&#234;u c&#7847;u mua s&#7843;n ph&#7849;m</text><text fill="#000000" font-family="sans-serif" font-size="13" lengthAdjust="spacing" textLength="161.1543" x="143" y="228.8861">(2) Thi&#7871;t b&#7883; l&#7895;i c&#7847;n b&#7843;o h&#224;nh</text></g><!--link System to Customer--><g class="link" data-entity-1="ent0006" data-entity-2="ent0002" data-link-type="dependency" data-source-line="16" id="lnk8"><path d="M496.6,251.0894 C410.46,276.1794 245.06,312.8294 111,274.0394 C100.64,271.0394 95.459,269.0192 86.169,263.3392" fill="none" id="System-to-Customer" style="stroke:#181818;stroke-width:1;"/><polygon fill="#181818" points="81.05,260.2094,86.642,268.3168,85.3158,262.8176,90.8151,261.4914,81.05,260.2094" style="stroke:#181818;stroke-width:1;"/><text fill="#000000" font-family="sans-serif" font-size="13" lengthAdjust="spacing" textLength="194.9556" x="126.4631" y="254.5345">(3) H&#243;a &#273;&#417;n b&#225;n l&#7867; (SalesInvoice)</text><text fill="#000000" font-family="sans-serif" font-size="13" lengthAdjust="spacing" textLength="223.8818" x="112" y="270.8861">(4) Thi&#7871;t b&#7883; &#273;&#227; b&#7843;o h&#224;nh (S&#7917;a/&#272;&#7893;i m&#7899;i)</text></g><!--link Supplier to System--><g class="link" data-entity-1="ent0003" data-entity-2="ent0006" data-link-type="dependency" data-source-line="19" id="lnk9"><path d="M1163.83,103.9694 C1139.42,110.1594 1108.05,117.8694 1080,124.0394 C945.58,153.5994 910.72,154.8994 776,183.0394 C730.81,192.4794 686.3809,202.3501 645.4009,211.6601" fill="none" id="Supplier-to-System" style="stroke:#181818;stroke-width:1;"/><polygon fill="#181818" points="639.55,212.9894,649.2125,214.8961,644.4258,211.8817,647.4402,207.0949,639.55,212.9894" style="stroke:#181818;stroke-width:1;"/><text fill="#000000" font-family="sans-serif" font-size="13" lengthAdjust="spacing" textLength="221.8506" x="817.4534" y="104.5345">(1) Giao h&#224;ng k&#232;m th&#244;ng tin s&#7843;n ph&#7849;m</text><text fill="#000000" font-family="sans-serif" font-size="13" lengthAdjust="spacing" textLength="239.7573" x="808.5" y="120.8861">(2) H&#243;a &#273;&#417;n mua h&#224;ng (PurchaseInvoice)</text></g><!--link System to Supplier--><g class="link" data-entity-1="ent0006" data-entity-2="ent0003" data-link-type="dependency" data-source-line="20" id="lnk10"><path d="M576.59,212.9494 C612.52,179.4394 692.9,111.1994 776,86.0394 C912.84,44.6094 1079.6764,67.9542 1158.0364,82.9142" fill="none" id="System-to-Supplier" style="stroke:#181818;stroke-width:1;"/><polygon fill="#181818" points="1163.93,84.0394,1155.8398,78.4226,1159.0187,83.1017,1154.3396,86.2807,1163.93,84.0394" style="stroke:#181818;stroke-width:1;"/><text fill="#000000" font-family="sans-serif" font-size="13" lengthAdjust="spacing" textLength="193.6797" x="831.5" y="60.5345">(3) Y&#234;u c&#7847;u &#273;&#7863;t h&#224;ng/Tr&#7843; h&#224;ng l&#7895;i</text></g><!--link System to Manufacturer--><g class="link" data-entity-1="ent0006" data-entity-2="ent0004" data-link-type="dependency" data-source-line="23" id="lnk11"><path d="M746.03,229.4194 C890.09,227.4194 1071.5806,224.9028 1155.7306,223.7328" fill="none" id="System-to-Manufacturer" style="stroke:#181818;stroke-width:1;"/><polygon fill="#181818" points="1161.73,223.6494,1152.6753,219.7749,1156.7305,223.7189,1152.7865,227.7741,1161.73,223.6494" style="stroke:#181818;stroke-width:1;"/><text fill="#000000" font-family="sans-serif" font-size="13" lengthAdjust="spacing" textLength="178.5215" x="838.8027" y="205.5345">(1) G&#7917;i thi&#7871;t b&#7883; h&#7887;ng c&#7911;a kh&#225;ch</text><text fill="#000000" font-family="sans-serif" font-size="13" lengthAdjust="spacing" textLength="182.127" x="837" y="221.8861">(2) G&#7917;i y&#234;u c&#7847;u claim b&#7843;o h&#224;nh</text></g><!--link Manufacturer to System--><g class="link" data-entity-1="ent0004" data-entity-2="ent0006" data-link-type="dependency" data-source-line="24" id="lnk12"><path d="M1161.95,244.3494 C1138.26,254.6394 1108.2,265.8494 1080,271.0394 C926.2,299.3394 749.2507,273.3098 645.5607,252.3198" fill="none" id="Manufacturer-to-System" style="stroke:#181818;stroke-width:1;"/><polygon fill="#181818" points="639.68,251.1294,647.7075,256.8355,644.5806,252.1214,649.2947,248.9945,639.68,251.1294" style="stroke:#181818;stroke-width:1;"/><text fill="#000000" font-family="sans-serif" font-size="13" lengthAdjust="spacing" textLength="188.4619" x="833.9043" y="251.5345">(3) Tr&#7843; l&#7841;i thi&#7871;t b&#7883; &#273;&#227; s&#7917;a/&#273;&#7893;i m&#7899;i</text><text fill="#000000" font-family="sans-serif" font-size="13" lengthAdjust="spacing" textLength="231.2705" x="812.5" y="267.8861">(4) K&#7871;t qu&#7843; ph&#234; duy&#7879;t k&#7929; thu&#7853;t c&#7911;a h&#227;ng</text></g><!--link User to System--><g class="link" data-entity-1="ent0005" data-entity-2="ent0006" data-link-type="dependency" data-source-line="27" id="lnk13"><path d="M1117.72,444.0494 C1105.26,448.1694 1092.46,451.6994 1080,454.0394 C947.21,478.9494 900.65,506.1694 776,454.0394 C674.61,411.6394 599.4503,302.002 571.3803,256.302" fill="none" id="User-to-System" style="stroke:#181818;stroke-width:1;"/><polygon fill="#181818" points="568.24,251.1894,569.542,260.9518,570.8569,255.4499,576.3588,256.7648,568.24,251.1894" style="stroke:#181818;stroke-width:1;"/><text fill="#000000" font-family="sans-serif" font-size="13" lengthAdjust="spacing" textLength="216.7915" x="819.7036" y="417.5345">(1) Th&#244;ng tin &#273;&#259;ng nh&#7853;p (Credentials)</text><text fill="#000000" font-family="sans-serif" font-size="13" lengthAdjust="spacing" textLength="239.1987" x="808.5" y="433.8861">(2) Y&#234;u c&#7847;u nh&#7853;p/xu&#7845;t/ki&#7875;m k&#234;/&#273;i&#7873;u ch&#7881;nh</text><text fill="#000000" font-family="sans-serif" font-size="13" lengthAdjust="spacing" textLength="172.7388" x="841.73" y="450.2376">(3) L&#7879;nh l&#7853;p b&#225;o c&#225;o th&#7889;ng k&#234;</text></g><!--link System to User--><g class="link" data-entity-1="ent0006" data-entity-2="ent0005" data-link-type="dependency" data-source-line="28" id="lnk14"><path d="M587.22,251.1694 C628.29,276.2194 704.79,319.5794 776,342.0394 C887.35,377.1494 1015.2282,392.3721 1103.6882,399.2821" fill="none" id="System-to-User" style="stroke:#181818;stroke-width:1;"/><polygon fill="#181818" points="1109.67,399.7494,1101.0088,395.0606,1104.6852,399.36,1100.3858,403.0363,1109.67,399.7494" style="stroke:#181818;stroke-width:1;"/><text fill="#000000" font-family="sans-serif" font-size="13" lengthAdjust="spacing" textLength="222.5806" x="816.7458" y="305.5345">(4) Ph&#7843;n h&#7891;i thao t&#225;c (Th&#224;nh c&#244;ng/L&#7895;i)</text><text fill="#000000" font-family="sans-serif" font-size="13" lengthAdjust="spacing" textLength="213.2241" x="821.4241" y="321.8861">(5) D&#7919; li&#7879;u tra c&#7913;u s&#7843;n ph&#7849;m/t&#7891;n kho</text><text fill="#000000" font-family="sans-serif" font-size="13" lengthAdjust="spacing" textLength="302.0723" x="777" y="338.2376">(6) B&#225;o c&#225;o th&#7889;ng k&#234; &amp; Nh&#7853;t k&#253; h&#7879; th&#7889;ng (Audit Log)</text></g><?plantuml-src XLHDQnH14BtFhoWYwCmXhCQFWmSXoQ8hsOJ8heZWfPtjp3GxqpFET8ViKN8GyQ1B40yYk0Q92GG51SaEuc6M_8_-9rPtxyTi4k9bQAQhwjLxhxe44n65rka0HdrLx45JufS7K5V5TuYOAbv9gD-lmxeg3dsu3kvgmWNT4L1d9CX8x3bEHBS4Y0Go5eG2EYoZlc09T_8kuod164Y9toK1ROaUOkdhojrg4gS9frpOMnb7Iuv3V95aiB0MbWC_XB3yp8C583ciobmaCSqc0Hju1Rx4Vdqr_9gQc9PCquZDOXhbFjxdQhZFOKTYc31XwuJBBGoHMQLSSFf35PyOTCeJp76NEp7ZDGJvmc6RbKVSCwcFSqnnD0_20-nveO4oWGXLqSUiHz90HUKVQEZ6iVsV1Ax22lvE39SGt2Saeur4vdGpIspHLYyND8OhJQtYIYIfuroRkj6fkB6jYeyCgj8u4rbWSV7UfD1TS6zuyBGyabgR0mcn96CLqb0D3-Ddt5toe1qoDVmhuBagta2aYW_CX7FyCMtN6PVKrQTGMF-cXmoHswX_Ei244Z-H6XRWjaX4yuTyEs4-zH3drXcSKR_Shm9WXYgEIMtqJXNl6SIQeNSv_pFEEnFNpqlmW14B4q2t_1QZJ-KlF0l6Bv2ZmaVhPTFSJPdv8SdfX59La2cm5QGYE3weuMzXQzJQ6MADwncPBwTtVcYhcDNPdR140HbogwYCy_ZMw5CS4EYQUR4aRMnlrgaV4HRFEJw7C2yfahHaqEl16KXZR6wzxC-yj2EmPk9UwEU1cfT7q94zf2oWgueJh8CNnsBSRgZv_sS2vXwhen_bUVFRCxD7_T4k7ZcwVPpY7ije1xSE8r7kMLagrjcWcbM-raNOtHYdvmXPuVabXg6uhxdM4-LeObSun94fZCyW0Lz_9Wi1ywhccKQnErHaCpG6OzoU5XBdLA1BuBRjg_1rxxMcdXRTucrlRYkBZ6Yn3kNS6DU4rWljJZ3ZZWSh5xM3ssWZD6ftSKk5rUtbBiiE4z1C0i_v1m00?></g></svg>