<?plantuml 1.2026.2?><svg xmlns="http://www.w3.org/2000/svg" xmlns:xlink="http://www.w3.org/1999/xlink" contentStyleType="text/css" data-diagram-type="DESCRIPTION" height="827px" preserveAspectRatio="none" style="width:588px;height:827px;background:#FFFFFF;" version="1.1" viewBox="0 0 588 827" width="588px" zoomAndPan="magnify"><title>Use Case Nh&#7853;p Kho v&#224; H&#243;a &#272;&#417;n Mua</title><defs/><g><g class="title" data-source-line="197"><text fill="#000000" font-family="sans-serif" font-size="14" font-weight="bold" lengthAdjust="spacing" textLength="247.2285" x="163.3857" y="24.5332">Use Case Nh&#7853;p Kho v&#224; H&#243;a &#272;&#417;n Mua</text></g><!--cluster Ph?n h? nh?p kho--><g class="cluster" data-qualified-name="Ph.n h. nh.p kho" data-source-line="210" id="ent0007"><rect fill="none" height="682" rx="2.5" ry="2.5" style="stroke:#181818;stroke-width:1;" width="323" x="259" y="139.6094"/><text fill="#000000" font-family="sans-serif" font-size="14" font-weight="bold" lengthAdjust="spacing" textLength="120.5654" x="360.2173" y="156.1426">Ph&#226;n h&#7879; nh&#7853;p kho</text></g><!--entity UC1--><g class="entity" data-qualified-name="Ph.n h. nh.p kho.UC1" data-source-line="211" id="ent0008"><ellipse cx="420.6324" cy="349.7358" fill="#F1F1F1" rx="78.6324" ry="18.1265" style="stroke:#181818;stroke-width:0.5;"/><text fill="#000000" font-family="sans-serif" font-size="14" lengthAdjust="spacing" textLength="122.999" x="359.1328" y="355.0405">L&#7853;p phi&#7871;u nh&#7853;p kho</text></g><!--entity UC2--><g class="entity" data-qualified-name="Ph.n h. nh.p kho.UC2" data-source-line="212" id="ent0009"><ellipse cx="420.6482" cy="261.739" fill="#F1F1F1" rx="73.6482" ry="17.1296" style="stroke:#181818;stroke-width:0.5;"/><text fill="#000000" font-family="sans-serif" font-size="14" lengthAdjust="spacing" textLength="110.5098" x="365.3933" y="267.0437">Qu&#233;t / nh&#7853;p serial</text></g><!--entity UC3--><g class="entity" data-qualified-name="Ph.n h. nh.p kho.UC3" data-source-line="213" id="ent0010"><ellipse cx="420.4569" cy="626.7008" fill="#F1F1F1" rx="83.4569" ry="19.0914" style="stroke:#181818;stroke-width:0.5;"/><text fill="#000000" font-family="sans-serif" font-size="14" lengthAdjust="spacing" textLength="134.6885" x="353.1126" y="632.0054">G&#7917;i duy&#7879;t phi&#7871;u nh&#7853;p</text></g><!--entity UC4--><g class="entity" data-qualified-name="Ph.n h. nh.p kho.UC4" data-source-line="214" id="ent0011"><ellipse cx="420.3518" cy="192.6797" fill="#F1F1F1" rx="73.3518" ry="17.0704" style="stroke:#181818;stroke-width:0.5;"/><text fill="#000000" font-family="sans-serif" font-size="14" lengthAdjust="spacing" textLength="109.751" x="365.4764" y="197.9844">Duy&#7879;t phi&#7871;u nh&#7853;p</text></g><!--entity UC5--><g class="entity" data-qualified-name="Ph.n h. nh.p kho.UC5" data-source-line="215" id="ent0012"><ellipse cx="420.3791" cy="698.4852" fill="#F1F1F1" rx="74.8791" ry="17.3758" style="stroke:#181818;stroke-width:0.5;"/><text fill="#000000" font-family="sans-serif" font-size="14" lengthAdjust="spacing" textLength="113.6406" x="363.5588" y="703.7899">Ghi s&#7893; phi&#7871;u nh&#7853;p</text></g><!--entity UC6--><g class="entity" data-qualified-name="Ph.n h. nh.p kho.UC6" data-source-line="216" id="ent0013"><ellipse cx="420.5265" cy="429.6906" fill="#F1F1F1" rx="101.5265" ry="26.5812" style="stroke:#181818;stroke-width:0.5;"/><text fill="#000000" font-family="sans-serif" font-size="14" lengthAdjust="spacing" textLength="110.373" x="365.34" y="424.265">L&#7853;p h&#243;a &#273;&#417;n mua</text><text fill="#000000" font-family="sans-serif" font-size="14" lengthAdjust="spacing" textLength="147.1504" x="346.9513" y="441.8744">t&#7915; phi&#7871;u nh&#7853;p &#273;&#227; ghi s&#7893;</text></g><!--entity UC7--><g class="entity" data-qualified-name="Ph.n h. nh.p kho.UC7" data-source-line="217" id="ent0014"><ellipse cx="420.3393" cy="540.5772" fill="#F1F1F1" rx="145.3393" ry="31.4679" style="stroke:#181818;stroke-width:0.5;"/><text fill="#000000" font-family="sans-serif" font-size="14" lengthAdjust="spacing" textLength="164.835" x="337.9219" y="531.4764">Nh&#7853;p chi ti&#7871;t h&#243;a &#273;&#417;n mua</text><text fill="#000000" font-family="sans-serif" font-size="14" lengthAdjust="spacing" textLength="258.1113" x="291.2837" y="549.0858">theo s&#7843;n ph&#7849;m / &#273;&#417;n gi&#225; / s&#7889; l&#432;&#7907;ng / thu&#7871;</text></g><!--entity UC8--><g class="entity" data-qualified-name="Ph.n h. nh.p kho.UC8" data-source-line="218" id="ent0015"><ellipse cx="420.2693" cy="778.5367" fill="#F1F1F1" rx="72.2693" ry="26.9273" style="stroke:#181818;stroke-width:0.5;"/><text fill="#000000" font-family="sans-serif" font-size="14" lengthAdjust="spacing" textLength="101.958" x="369.2903" y="776.4465">Nh&#7853;p t&#7891;n &#273;&#7847;u k&#7923;</text><text fill="#000000" font-family="sans-serif" font-size="14" lengthAdjust="spacing" textLength="84.0615" x="378.2386" y="794.0559">t&#7915; Excel/CSV</text></g><!--entity Admin--><g class="entity" data-qualified-name="Admin" data-source-line="203" id="ent0002"><ellipse cx="420.686" cy="60.6094" fill="#F1F1F1" rx="16" ry="16" style="stroke:#181818;stroke-width:0.5;"/><path d="M420.686,80.6094 C424.686,80.6094 427.686,80.6094 431.686,76.6094 C439.686,76.6094 447.686,84.6094 447.686,92.6094 L447.686,96.6094 C447.686,100.6094 443.686,104.6094 439.686,104.6094 L401.686,104.6094 C397.686,104.6094 393.686,100.6094 393.686,96.6094 L393.686,92.6094 C393.686,84.6094 401.686,76.6094 409.686,76.6094 C413.686,80.6094 416.686,80.6094 420.686,80.6094" fill="#F1F1F1" style="stroke:#181818;stroke-width:0.5;"/><text fill="#000000" font-family="sans-serif" font-size="14" lengthAdjust="spacing" textLength="79.3721" x="381" y="119.6426">Qu&#7843;n tr&#7883; vi&#234;n</text></g><!--entity Manager--><g class="entity" data-qualified-name="Manager" data-source-line="204" id="ent0003"><ellipse cx="184.5" cy="169.6094" fill="#F1F1F1" rx="16" ry="16" style="stroke:#181818;stroke-width:0.5;"/><path d="M184.5,189.6094 C188.5,189.6094 191.5,189.6094 195.5,185.6094 C203.5,185.6094 211.5,193.6094 211.5,201.6094 L211.5,205.6094 C211.5,209.6094 207.5,213.6094 203.5,213.6094 L165.5,213.6094 C161.5,213.6094 157.5,209.6094 157.5,205.6094 L157.5,201.6094 C157.5,193.6094 165.5,185.6094 173.5,185.6094 C177.5,189.6094 180.5,189.6094 184.5,189.6094" fill="#F1F1F1" style="stroke:#181818;stroke-width:0.5;"/><text fill="#000000" font-family="sans-serif" font-size="14" lengthAdjust="spacing" textLength="48.248" x="160.376" y="228.6426">Qu&#7843;n l&#253;</text></g><!--entity Storekeeper--><g class="entity" data-qualified-name="Storekeeper" data-source-line="205" id="ent0004"><ellipse cx="50.7515" cy="452.6094" fill="#F1F1F1" rx="16" ry="16" style="stroke:#181818;stroke-width:0.5;"/><path d="M50.7515,472.6094 C54.7515,472.6094 57.7515,472.6094 61.7515,468.6094 C69.7515,468.6094 77.7515,476.6094 77.7515,484.6094 L77.7515,488.6094 C77.7515,492.6094 73.7515,496.6094 69.7515,496.6094 L31.7515,496.6094 C27.7515,496.6094 23.7515,492.6094 23.7515,488.6094 L23.7515,484.6094 C23.7515,476.6094 31.7515,468.6094 39.7515,468.6094 C43.7515,472.6094 46.7515,472.6094 50.7515,472.6094" fill="#F1F1F1" style="stroke:#181818;stroke-width:0.5;"/><text fill="#000000" font-family="sans-serif" font-size="14" lengthAdjust="spacing" textLength="89.5029" x="6" y="511.6426">Nh&#226;n vi&#234;n kho</text></g><!--reverse link Manager to Admin--><g class="link" data-entity-1="ent0003" data-entity-2="ent0002" data-link-type="extension" data-source-line="207" id="lnk5"><path d="M228.1851,170.7013 C240.0251,164.6813 238.13,165.7494 251,159.6094 C295.17,138.5294 346.51,115.5994 380.8,100.4994" fill="none" id="Manager-backto-Admin" style="stroke:#181818;stroke-width:1;"/><polygon fill="none" points="212.14,178.8594,230.9045,176.0497,225.4658,165.3529,212.14,178.8594" style="stroke:#181818;stroke-width:1;"/></g><!--reverse link Storekeeper to Manager--><g class="link" data-entity-1="ent0004" data-entity-2="ent0003" data-link-type="extension" data-source-line="208" id="lnk6"><path d="M66.2413,418.4174 C77.8013,374.6974 94.98,320.6494 126,264.6094 C134.45,249.3494 146.12,234.0394 156.75,221.4794" fill="none" id="Storekeeper-backto-Manager" style="stroke:#181818;stroke-width:1;"/><polygon fill="none" points="61.64,435.8194,72.0419,419.9512,60.4406,416.8837,61.64,435.8194" style="stroke:#181818;stroke-width:1;"/></g><!--link Storekeeper to UC1--><g class="link" data-entity-1="ent0004" data-entity-2="ent0008" data-link-type="dependency" data-source-line="221" id="lnk16"><path d="M96.13,454.4994 C105.94,449.8694 116.3,445.0394 126,440.6094 C181.22,415.4094 193.24,404.2694 251,385.6094 C285.02,374.6194 318.0941,367.1624 349.9841,361.1424" fill="none" id="Storekeeper-to-UC1" style="stroke:#181818;stroke-width:1;"/><polygon fill="#181818" points="355.88,360.0294,346.2942,357.7683,350.9668,360.9569,347.7782,365.6294,355.88,360.0294" style="stroke:#181818;stroke-width:1;"/></g><!--link Storekeeper to UC2--><g class="link" data-entity-1="ent0004" data-entity-2="ent0009" data-link-type="dependency" data-source-line="222" id="lnk17"><path d="M90.84,435.8894 C128.64,399.3294 189.26,345.9994 251,313.6094 C287.06,294.6894 325.3052,282.8389 359.3352,274.4289" fill="none" id="Storekeeper-to-UC2" style="stroke:#181818;stroke-width:1;"/><polygon fill="#181818" points="365.16,272.9894,355.4632,271.2655,360.306,274.189,357.3825,279.0318,365.16,272.9894" style="stroke:#181818;stroke-width:1;"/></g><!--link Storekeeper to UC3--><g class="link" data-entity-1="ent0004" data-entity-2="ent0010" data-link-type="dependency" data-source-line="223" id="lnk18"><path d="M96.27,506.2394 C135.36,531.9594 194.72,567.8994 251,589.6094 C282.58,601.7894 313.2143,609.3154 344.1743,615.1654" fill="none" id="Storekeeper-to-UC3" style="stroke:#181818;stroke-width:1;"/><polygon fill="#181818" points="350.07,616.2794,341.9692,610.6779,345.1569,615.351,340.4838,618.5388,350.07,616.2794" style="stroke:#181818;stroke-width:1;"/></g><!--link Storekeeper to UC5--><g class="link" data-entity-1="ent0004" data-entity-2="ent0012" data-link-type="dependency" data-source-line="224" id="lnk19"><path d="M82.04,515.3294 C117.39,558.9594 180.3,627.5094 251,662.6094 C281.95,677.9794 313.3456,685.85 344.9856,690.92" fill="none" id="Storekeeper-to-UC5" style="stroke:#181818;stroke-width:1;"/><polygon fill="#181818" points="350.91,691.8694,342.6563,686.4958,345.973,691.0783,341.3905,694.395,350.91,691.8694" style="stroke:#181818;stroke-width:1;"/></g><!--link Storekeeper to UC6--><g class="link" data-entity-1="ent0004" data-entity-2="ent0013" data-link-type="dependency" data-source-line="225" id="lnk20"><path d="M96.33,470.0594 C153.6,462.8894 248.7564,450.9845 322.6664,441.7345" fill="none" id="Storekeeper-to-UC6" style="stroke:#181818;stroke-width:1;"/><polygon fill="#181818" points="328.62,440.9894,319.1929,438.138,323.6587,441.6103,320.1864,446.0761,328.62,440.9894" style="stroke:#181818;stroke-width:1;"/></g><!--link Storekeeper to UC7--><g class="link" data-entity-1="ent0004" data-entity-2="ent0014" data-link-type="dependency" data-source-line="226" id="lnk21"><path d="M96.33,483.4494 C148.26,492.6294 230.3118,507.1441 301.3618,519.7141" fill="none" id="Storekeeper-to-UC7" style="stroke:#181818;stroke-width:1;"/><polygon fill="#181818" points="307.27,520.7594,299.1045,515.2526,302.3465,519.8883,297.7108,523.1303,307.27,520.7594" style="stroke:#181818;stroke-width:1;"/></g><!--link Storekeeper to UC8--><g class="link" data-entity-1="ent0004" data-entity-2="ent0015" data-link-type="dependency" data-source-line="227" id="lnk22"><path d="M69.63,515.4294 C98.21,574.6194 160.7,684.1594 251,733.6094 C282.47,750.8394 315.0379,760.527 347.2479,767.287" fill="none" id="Storekeeper-to-UC8" style="stroke:#181818;stroke-width:1;"/><polygon fill="#181818" points="353.12,768.5194,345.1335,762.7561,348.2266,767.4924,343.4903,770.5855,353.12,768.5194" style="stroke:#181818;stroke-width:1;"/></g><!--link Manager to UC4--><g class="link" data-entity-1="ent0003" data-entity-2="ent0011" data-link-type="dependency" data-source-line="228" id="lnk23"><path d="M212.34,192.6094 C244.94,192.6094 295.21,192.6094 340.89,192.6094" fill="none" id="Manager-to-UC4" style="stroke:#181818;stroke-width:1;"/><polygon fill="#181818" points="346.89,192.6094,337.89,188.6094,341.89,192.6094,337.89,196.6094,346.89,192.6094" style="stroke:#181818;stroke-width:1;"/></g><!--link UC2 to UC1--><g class="link" data-entity-1="ent0009" data-entity-2="ent0008" data-link-type="dependency" data-source-line="229" id="lnk24"><path d="M420.5,278.6294 C420.5,293.7694 420.5,309.8694 420.5,325.3794" fill="none" id="UC2-to-UC1" style="stroke:#181818;stroke-width:1;stroke-dasharray:7,7;"/><polygon fill="#181818" points="420.5,331.3794,424.5,322.3794,420.5,326.3794,416.5,322.3794,420.5,331.3794" style="stroke:#181818;stroke-width:1;"/><text fill="#000000" font-family="sans-serif" font-size="13" lengthAdjust="spacing" textLength="53.4917" x="382" y="310.6045">&#171;extend&#187;</text></g><!--link UC6 to UC7--><g class="link" data-entity-1="ent0013" data-entity-2="ent0014" data-link-type="dependency" data-source-line="230" id="lnk25"><path d="M420.5,456.3094 C420.5,472.1994 420.5,486.4294 420.5,503.0994" fill="none" id="UC6-to-UC7" style="stroke:#181818;stroke-width:1;stroke-dasharray:7,7;"/><polygon fill="#181818" points="420.5,509.0994,424.5,500.0994,420.5,504.0994,416.5,500.0994,420.5,509.0994" style="stroke:#181818;stroke-width:1;"/><text fill="#000000" font-family="sans-serif" font-size="13" lengthAdjust="spacing" textLength="55.6563" x="381" y="488.1045">&#171;include&#187;</text></g><?plantuml-src VPBDQjj058NtynGNxrtJ_DYX645nImjjGeD9LzqCqaGpQ3GIqYW_j5rtqKrDwRwf5oK9WK9s5YKBXRp7l4clHkCWsw8RmPpptNFlZAuMMZ8uoXbCA7uEk5dSfF269t1I_OJNrIs5-syF5mhs2qeaEzQW4yX4o3K48cE-5eaYUIHKIZCQGqhzY8PigiynjRQf2YLh0TJNITROz9JbITmsSqw3v5Ie48wfp1aXbeRUOM4MSmKwC-LNE17LbUe1pU5v40krniZgh_NsgS8vigLxmAjVgYc5Y2SMcQB38iPIn8ZZOVofttV1BR-HbvdayMBGUsU3kIc_W6hUpiP_9015plpwJNjlhPvoOHPtnGg6KnnDdhRPmwAwr31OKZdB19KEt6g3hqnv8o0eph6rNWjt_7QRV_4_ScSbcGl8JVcZ6ztTl1ctMpAhjoGkw0UbJNczVjtxMJM7q2Mxg64xocsUZuYkA_LcB6S9bjT_EKNuCiPdQknGL1TumEWPo8S_ffpZ2Wr0Szo9EzTirD4C1_skCCCiVXSGcVBMpVxop6ToC9c-TxLxv3DPMOT-txC_RbFRwj2sExJT3ctOeOqwjBt7RMtEEmJxmXCx4Zo3yPYTQQO2pqDzsEWZgmlboo9WdlSF?></g></svg>